<svg width="150" height="150" viewBox="0 0 150 150" fill="none" xmlns="http://www.w3.org/2000/svg">
<rect width="150" height="150" rx="10" fill="#141920"/>
<path d="M105.22 102.914C71.1688 119.119 50.0362 105.561 36.5085 97.3252C35.6715 96.8062 34.2487 97.4466 35.4831 98.8645C39.9899 104.329 54.7594 117.5 74.0379 117.5C93.3296 117.5 104.806 106.974 106.242 105.137C107.668 103.317 106.661 102.312 105.22 102.914H105.22ZM114.783 97.6323C113.869 96.4416 109.223 96.2196 106.299 96.5788C103.371 96.9276 98.9753 98.7173 99.3575 99.7918C99.5536 100.194 99.9538 100.014 101.965 99.8329C103.983 99.6317 109.634 98.9185 110.811 100.458C111.994 102.008 109.009 109.391 108.463 110.582C107.937 111.772 108.665 112.08 109.654 111.286C110.63 110.494 112.397 108.441 113.582 105.535C114.76 102.614 115.478 98.539 114.783 97.6323H114.783Z" fill="#FF9900"/>
<path fill-rule="evenodd" clip-rule="evenodd" d="M82.3231 69.8463C82.3231 74.0984 82.4305 77.6444 80.2813 81.4205C78.5466 84.4909 75.7988 86.3789 72.7288 86.3789C68.5379 86.3789 66.0971 83.1859 66.0971 78.4734C66.0971 69.1707 74.4324 67.4823 82.3231 67.4823V69.8463ZM93.3294 96.4492C92.6078 97.0938 91.564 97.14 90.7505 96.71C87.1278 93.7014 86.4829 92.3045 84.4874 89.4338C78.5007 95.5435 74.2638 97.3701 66.4964 97.3701C57.3166 97.3701 50.1631 91.7056 50.1631 80.3614C50.1631 71.5043 54.9682 65.4712 61.7988 62.5241C67.7244 59.9142 75.9985 59.4537 82.3231 58.7325V57.3201C82.3231 54.7257 82.5224 51.6556 81.0029 49.4146C79.6672 47.4035 77.119 46.5745 74.8776 46.5745C70.7178 46.5745 67.0028 48.7082 66.0971 53.1292C65.9127 54.1119 65.1915 55.079 64.2091 55.125L53.6169 53.9892C52.7268 53.7893 51.7444 53.068 51.99 51.7016C54.4307 38.8686 66.0201 35 76.3971 35C81.7086 35 88.647 36.4124 92.8379 40.4344C98.1494 45.3925 97.6426 52.0086 97.6426 59.2082V76.2168C97.6426 81.3286 99.7611 83.5697 101.757 86.333C102.463 87.3154 102.616 88.4977 101.726 89.2342C99.4999 91.0915 95.5394 94.5456 93.3598 96.4799L93.3291 96.4492" fill="white"/>
</svg>
