<svg width="150" height="147" viewBox="0 0 150 147" fill="none" xmlns="http://www.w3.org/2000/svg">
<rect width="150" height="150" rx="10" fill="white"/>
<path d="M119.023 76.0125C119.023 73.05 118.76 70.2375 118.31 67.5H75.9351V84.4125H100.198C99.1101 89.9625 95.9226 94.65 91.1976 97.8375V109.088H105.673C114.148 101.25 119.023 89.7 119.023 76.0125Z" fill="#4285F4"/>
<path d="M75.935 120C88.085 120 98.2475 115.95 105.672 109.087L91.1975 97.8374C87.1475 100.537 82.01 102.187 75.935 102.187C64.1975 102.187 54.26 94.2749 50.6975 83.5874H35.7725V95.1749C43.16 109.875 58.3475 120 75.935 120Z" fill="#34A853"/>
<path d="M50.6976 83.5874C49.7601 80.8874 49.2726 77.9999 49.2726 74.9999C49.2726 71.9999 49.7976 69.1125 50.6976 66.4125V54.825H35.7726C32.6976 60.9 30.9351 67.7249 30.9351 74.9999C30.9351 82.2749 32.6976 89.0999 35.7726 95.1749L50.6976 83.5874Z" fill="#FBBC05"/>
<path d="M75.935 47.8125C82.5725 47.8125 88.4975 50.1 93.185 54.5625L106.01 41.7375C98.2475 34.4625 88.085 30 75.935 30C58.3475 30 43.16 40.125 35.7725 54.825L50.6975 66.4125C54.26 55.725 64.1975 47.8125 75.935 47.8125Z" fill="#EA4335"/>
</svg>
