<svg width="150" height="151" viewBox="0 0 150 151" fill="none" xmlns="http://www.w3.org/2000/svg">
<rect width="150" height="150" rx="10" fill="#FBF1E6"/>
<path d="M109.277 50.5098C104.029 50.5098 100.285 52.7967 96.8313 57.7645L86.875 72.0611V31.2506H63.125V72.0611L53.1687 57.7645C49.7203 52.7967 45.9763 50.5098 40.7233 50.5098C32.7998 50.5098 27.526 56.3592 27.5001 63.5671C27.4794 69.738 30.3885 73.762 36.523 77.7134L75 102.5L113.477 77.7134C119.612 73.762 122.521 69.738 122.5 63.5671C122.479 56.3592 117.2 50.5098 109.277 50.5098Z" fill="#0AAD0A"/>
<path d="M75.0127 108.438C97.8811 108.438 116.627 125.509 116.575 150.005H33.4503C33.4036 125.519 52.1443 108.438 75.0127 108.438Z" fill="#FF7009"/>
</svg>
