<svg width="150" height="150" viewBox="0 0 150 150" fill="none" xmlns="http://www.w3.org/2000/svg">
<rect width="150" height="150" rx="10" fill="black"/>
<path d="M42.4277 94.9858C39.746 94.8695 37.5521 94.0688 35.8366 92.5817C35.5092 92.2976 34.729 91.4459 34.4673 91.0866C33.7716 90.1321 33.2987 89.2032 32.9832 88.1725C32.0125 84.9999 32.5121 80.8366 34.4122 76.2676C36.0391 72.3559 38.5494 68.4763 42.9291 63.103C43.5743 62.3123 45.4955 60 45.5079 60C45.5125 60 45.4078 60.1979 45.276 60.4389C44.1372 62.5203 43.1628 64.9719 42.632 67.0944C41.7793 70.5 41.8822 73.4226 42.9332 75.6888C43.6583 77.2501 44.9013 78.6025 46.299 79.35C48.746 80.6583 52.3286 80.7665 56.7037 79.6667C57.0049 79.5905 71.9311 75.267 89.8732 70.0586C107.815 64.8496 122.498 60.5912 122.5 60.5947C122.505 60.5993 80.8154 80.065 59.1736 90.1637C55.7463 91.7625 54.8297 92.1664 53.2185 92.7837C49.0996 94.362 45.4101 95.115 42.4277 94.9858Z" fill="white"/>
</svg>
