<svg width="150" height="150" viewBox="0 0 150 150" fill="none" xmlns="http://www.w3.org/2000/svg">
<rect width="150" height="150" rx="10" fill="#010202"/>
<path d="M38.9382 76.8914C39.2825 77.805 39.7592 78.5864 40.3685 79.2352C40.9777 79.8839 41.6993 80.3803 42.5335 80.7244C43.3677 81.0689 44.2748 81.2414 45.2549 81.2414C46.2084 81.2414 47.102 81.0624 47.9364 80.7052C48.7708 80.3475 49.4987 79.8441 50.1217 79.1953C50.7437 78.5466 51.227 77.7717 51.5715 76.8717C51.9156 75.9708 52.0881 74.9653 52.0881 73.8521V56.6902H56.259V84.4988H52.1275V81.9169C51.2007 82.8966 50.1081 83.6513 48.85 84.1814C47.5918 84.7111 46.2346 84.976 44.7779 84.976C43.2948 84.976 41.911 84.7177 40.6264 84.2011C39.342 83.6846 38.2294 82.95 37.2894 81.9966C36.3492 81.0432 35.6076 79.8975 35.0646 78.5602C34.5216 77.2228 34.25 75.7332 34.25 74.0911V56.6902H38.4212V73.8525C38.4218 74.9644 38.5938 75.9774 38.9382 76.8914ZM63.4492 56.6902V66.8203C64.3764 65.8932 65.4489 65.1586 66.6672 64.6158C67.8854 64.073 69.2101 63.8011 70.6403 63.8011C72.1234 63.8011 73.5137 64.0791 74.8112 64.6355C76.1097 65.1914 77.2347 65.9466 78.1886 66.9C79.1415 67.8535 79.8962 68.9789 80.4531 70.2764C81.009 71.5739 81.287 72.9516 81.287 74.408C81.287 75.8649 81.009 77.2355 80.4531 78.5199C79.8962 79.8047 79.1415 80.9236 78.1886 81.8771C77.2347 82.8305 76.1097 83.5857 74.8112 84.1416C73.5137 84.698 72.1229 84.976 70.6403 84.976C69.2101 84.976 67.8793 84.7046 66.6475 84.1613C65.4156 83.6185 64.3365 82.883 63.4093 81.9568V84.4993H59.4367V56.6902H63.4492ZM63.9062 77.1497C64.2634 77.9967 64.7608 78.7388 65.3959 79.3744C66.0311 80.01 66.7731 80.513 67.6206 80.8838C68.4681 81.255 69.3822 81.4402 70.3618 81.4402C71.3153 81.4402 72.2157 81.255 73.0632 80.8838C73.9107 80.513 74.6457 80.01 75.2678 79.3744C75.8903 78.7388 76.3872 77.9972 76.7575 77.1497C77.1283 76.3022 77.3139 75.3882 77.3139 74.4085C77.3139 73.4283 77.1283 72.5086 76.7575 71.6475C76.3867 70.7864 75.8903 70.0383 75.2678 69.4032C74.6457 68.7675 73.9107 68.2711 73.0632 67.9135C72.2157 67.5563 71.3153 67.3772 70.3618 67.3772C69.4084 67.3772 68.5079 67.5563 67.6609 67.9135C66.8129 68.2711 66.0714 68.768 65.4358 69.4032C64.8001 70.0388 64.2972 70.7869 63.9259 71.6475C63.5551 72.5082 63.37 73.4283 63.37 74.4085C63.37 75.3882 63.549 76.3022 63.9062 77.1497ZM83.5511 70.3163C84.0803 69.0446 84.8083 67.9261 85.7359 66.9591C86.6626 65.9925 87.7623 65.2313 89.0331 64.6753C90.3043 64.1189 91.682 63.841 93.1646 63.841C94.6215 63.841 95.972 64.1058 97.217 64.6355C98.4615 65.1652 99.534 65.9002 100.435 66.8405C101.335 67.7808 102.037 68.8927 102.541 70.1771C103.043 71.4619 103.295 72.8588 103.295 74.3686V75.6797H86.8084C86.9406 76.501 87.2054 77.2622 87.6029 77.9639C88.0004 78.6657 88.4973 79.275 89.0926 79.7911C89.6884 80.3077 90.3639 80.7113 91.119 81.0024C91.8737 81.2944 92.6743 81.4402 93.5228 81.4402C95.9326 81.4402 97.8793 80.4464 99.362 78.4599L102.263 80.6053C101.256 81.9563 100.011 83.0157 98.5281 83.7835C97.045 84.5513 95.3767 84.9352 93.5228 84.9352C92.0129 84.9352 90.6025 84.6703 89.2918 84.1407C87.9808 83.611 86.8417 82.8694 85.8756 81.916C84.909 80.9625 84.1468 79.8432 83.5909 78.5588C83.0354 77.2744 82.7575 75.8771 82.7575 74.3672C82.7565 72.9385 83.0214 71.588 83.5511 70.3163ZM89.1325 68.7474C88.007 69.6877 87.2589 70.9388 86.8881 72.5016H99.2439C98.8993 70.9388 98.1643 69.6877 97.0393 68.7474C95.9134 67.8071 94.5957 67.3369 93.0864 67.3369C91.5756 67.3369 90.2584 67.8071 89.1325 68.7474ZM110.803 69.2039C109.956 70.1311 109.532 71.3888 109.532 72.9783V84.4993H105.52V64.2385H109.492V66.7411C109.996 65.9199 110.651 65.2711 111.459 64.7949C112.267 64.3177 113.227 64.0796 114.339 64.0796H115.729V67.8141H114.061C112.737 67.8136 111.651 68.2768 110.803 69.2039Z" fill="white"/>
</svg>
