<svg width="90" height="30" viewBox="0 0 90 30" fill="none" xmlns="http://www.w3.org/2000/svg">
<rect width="90" height="30" rx="10" fill="#C8F0FC"/>
<path d="M10.32 13.52H11.152C11.504 13.52 11.8613 13.4933 12.224 13.44C12.5867 13.3867 12.9173 13.2907 13.216 13.152C13.5147 13.0027 13.76 12.8053 13.952 12.56C14.144 12.3147 14.24 12.0053 14.24 11.632C14.24 11.152 14.032 10.7627 13.616 10.464C13.2107 10.1547 12.6667 10 11.984 10C11.3973 10 10.8693 10.0693 10.4 10.208C9.93067 10.336 9.584 10.4693 9.36 10.608L8.864 9.344C8.992 9.25867 9.16267 9.17867 9.376 9.104C9.6 9.01867 9.84533 8.944 10.112 8.88C10.3893 8.816 10.688 8.768 11.008 8.736C11.328 8.69333 11.6587 8.672 12 8.672C12.5547 8.672 13.0667 8.73067 13.536 8.848C14.0053 8.96533 14.4107 9.14667 14.752 9.392C15.0933 9.62667 15.36 9.93067 15.552 10.304C15.744 10.6667 15.84 11.0987 15.84 11.6C15.84 12.112 15.6747 12.592 15.344 13.04C15.024 13.488 14.5493 13.8133 13.92 14.016C14.24 14.1013 14.544 14.224 14.832 14.384C15.1307 14.5333 15.3867 14.7307 15.6 14.976C15.824 15.2107 16 15.488 16.128 15.808C16.2667 16.128 16.336 16.5013 16.336 16.928C16.336 17.5147 16.224 18.0213 16 18.448C15.7867 18.864 15.4827 19.2053 15.088 19.472C14.704 19.7387 14.2347 19.9307 13.68 20.048C13.1253 20.176 12.512 20.24 11.84 20.24C11.4347 20.24 11.0507 20.208 10.688 20.144C10.3253 20.0907 10 20.0267 9.712 19.952C9.424 19.8667 9.17333 19.776 8.96 19.68C8.74667 19.584 8.58133 19.504 8.464 19.44L8.928 18.16C9.04533 18.224 9.2 18.2987 9.392 18.384C9.59467 18.4693 9.81867 18.5493 10.064 18.624C10.3093 18.6987 10.5813 18.7627 10.88 18.816C11.1787 18.8693 11.4933 18.896 11.824 18.896C12.7307 18.896 13.4347 18.7467 13.936 18.448C14.448 18.1387 14.704 17.6213 14.704 16.896C14.704 16.4693 14.6133 16.1227 14.432 15.856C14.2613 15.5787 14.0213 15.36 13.712 15.2C13.4133 15.04 13.056 14.9333 12.64 14.88C12.2347 14.816 11.792 14.784 11.312 14.784H10.32V13.52ZM21.2523 18.928C21.6043 18.928 21.9136 18.9227 22.1803 18.912C22.4576 18.8907 22.6869 18.8587 22.8683 18.816V16.336C22.7616 16.2827 22.5856 16.24 22.3403 16.208C22.1056 16.1653 21.8176 16.144 21.4763 16.144C21.2523 16.144 21.0123 16.16 20.7563 16.192C20.5109 16.224 20.2816 16.2933 20.0683 16.4C19.8656 16.496 19.6949 16.6347 19.5563 16.816C19.4176 16.9867 19.3483 17.216 19.3483 17.504C19.3483 18.0373 19.5189 18.4107 19.8603 18.624C20.2016 18.8267 20.6656 18.928 21.2523 18.928ZM21.1243 11.472C21.7216 11.472 22.2229 11.552 22.6283 11.712C23.0443 11.8613 23.3749 12.08 23.6203 12.368C23.8763 12.6453 24.0576 12.9813 24.1643 13.376C24.2709 13.76 24.3243 14.1867 24.3243 14.656V19.856C24.1963 19.8773 24.0149 19.9093 23.7803 19.952C23.5563 19.984 23.3003 20.016 23.0123 20.048C22.7243 20.08 22.4096 20.1067 22.0683 20.128C21.7376 20.16 21.4069 20.176 21.0763 20.176C20.6069 20.176 20.1749 20.128 19.7803 20.032C19.3856 19.936 19.0443 19.7867 18.7563 19.584C18.4683 19.3707 18.2443 19.0933 18.0843 18.752C17.9243 18.4107 17.8443 18 17.8443 17.52C17.8443 17.0613 17.9349 16.6667 18.1163 16.336C18.3083 16.0053 18.5643 15.7387 18.8843 15.536C19.2043 15.3333 19.5776 15.184 20.0043 15.088C20.4309 14.992 20.8789 14.944 21.3483 14.944C21.4976 14.944 21.6523 14.9547 21.8123 14.976C21.9723 14.9867 22.1216 15.008 22.2603 15.04C22.4096 15.0613 22.5376 15.0827 22.6443 15.104C22.7509 15.1253 22.8256 15.1413 22.8683 15.152V14.736C22.8683 14.4907 22.8416 14.2507 22.7883 14.016C22.7349 13.7707 22.6389 13.5573 22.5003 13.376C22.3616 13.184 22.1696 13.0347 21.9243 12.928C21.6896 12.8107 21.3803 12.752 20.9963 12.752C20.5056 12.752 20.0736 12.7893 19.7003 12.864C19.3376 12.928 19.0656 12.9973 18.8843 13.072L18.7083 11.84C18.9003 11.7547 19.2203 11.6747 19.6683 11.6C20.1163 11.5147 20.6016 11.472 21.1243 11.472ZM28.2516 18.88C28.3156 18.8907 28.4063 18.9013 28.5236 18.912C28.641 18.9227 28.7743 18.9333 28.9236 18.944C29.073 18.944 29.2276 18.9493 29.3876 18.96C29.5583 18.96 29.7183 18.96 29.8676 18.96C30.177 18.96 30.4703 18.9387 30.7476 18.896C31.0356 18.8533 31.281 18.7787 31.4836 18.672C31.697 18.5653 31.8623 18.4267 31.9796 18.256C32.1076 18.0747 32.1716 17.8453 32.1716 17.568C32.1716 17.3013 32.113 17.0827 31.9956 16.912C31.889 16.7307 31.7396 16.5867 31.5476 16.48C31.3556 16.3733 31.1263 16.2987 30.8596 16.256C30.6036 16.2133 30.3263 16.192 30.0276 16.192H28.2516V18.88ZM29.8356 15.088C30.1236 15.088 30.385 15.072 30.6196 15.04C30.865 14.9973 31.073 14.928 31.2436 14.832C31.425 14.736 31.5636 14.608 31.6596 14.448C31.7663 14.288 31.8196 14.0853 31.8196 13.84C31.8196 13.584 31.7556 13.3813 31.6276 13.232C31.4996 13.0827 31.329 12.9707 31.1156 12.896C30.913 12.8107 30.6783 12.7573 30.4116 12.736C30.1556 12.704 29.8943 12.688 29.6276 12.688C29.3823 12.688 29.1316 12.6933 28.8756 12.704C28.6303 12.7147 28.4223 12.7253 28.2516 12.736V15.088H29.8356ZM29.8036 20.144C29.1743 20.144 28.593 20.112 28.0596 20.048C27.5263 19.9947 27.105 19.9307 26.7956 19.856V11.76C27.105 11.6853 27.5263 11.6213 28.0596 11.568C28.593 11.504 29.1743 11.472 29.8036 11.472C30.241 11.472 30.6676 11.5093 31.0836 11.584C31.4996 11.6587 31.8676 11.7867 32.1876 11.968C32.5076 12.1387 32.7636 12.3787 32.9556 12.688C33.1583 12.9867 33.2596 13.36 33.2596 13.808C33.2596 14.2133 33.1583 14.56 32.9556 14.848C32.753 15.136 32.481 15.36 32.1396 15.52C32.5983 15.68 32.961 15.92 33.2276 16.24C33.505 16.5493 33.6436 16.9867 33.6436 17.552C33.6436 18.0533 33.5423 18.4693 33.3396 18.8C33.1476 19.1307 32.8756 19.3973 32.5236 19.6C32.1823 19.8027 31.777 19.9413 31.3076 20.016C30.8383 20.1013 30.337 20.144 29.8036 20.144ZM35.0973 15.856C35.0973 15.12 35.2039 14.48 35.4173 13.936C35.6306 13.3813 35.9133 12.9227 36.2653 12.56C36.6173 12.1973 37.0226 11.9253 37.4813 11.744C37.9399 11.5627 38.4093 11.472 38.8893 11.472C40.0093 11.472 40.8679 11.824 41.4653 12.528C42.0626 13.2213 42.3612 14.2827 42.3612 15.712C42.3612 15.776 42.3612 15.8613 42.3612 15.968C42.3612 16.064 42.3559 16.1547 42.3453 16.24H36.6493C36.7133 17.104 36.9639 17.76 37.4013 18.208C37.8386 18.656 38.5213 18.88 39.4493 18.88C39.9719 18.88 40.4093 18.8373 40.7613 18.752C41.1239 18.656 41.3959 18.5653 41.5773 18.48L41.7853 19.728C41.6039 19.824 41.2839 19.9253 40.8253 20.032C40.3773 20.1387 39.8653 20.192 39.2893 20.192C38.5639 20.192 37.9346 20.0853 37.4013 19.872C36.8786 19.648 36.4466 19.344 36.1053 18.96C35.7639 18.576 35.5079 18.1227 35.3372 17.6C35.1773 17.0667 35.0973 16.4853 35.0973 15.856ZM40.8093 15.04C40.8199 14.368 40.6493 13.8187 40.2973 13.392C39.9559 12.9547 39.4813 12.736 38.8733 12.736C38.5319 12.736 38.2279 12.8053 37.9613 12.944C37.7053 13.072 37.4866 13.2427 37.3053 13.456C37.1239 13.6693 36.9799 13.9147 36.8733 14.192C36.7773 14.4693 36.7133 14.752 36.6813 15.04H40.8093ZM50.2748 15.856C50.2748 14.8853 50.0348 14.1387 49.5548 13.616C49.0748 13.0933 48.4348 12.832 47.6348 12.832C47.1868 12.832 46.8348 12.848 46.5788 12.88C46.3334 12.912 46.1361 12.9493 45.9868 12.992V18.24C46.1681 18.3893 46.4294 18.5333 46.7708 18.672C47.1121 18.8107 47.4854 18.88 47.8908 18.88C48.3174 18.88 48.6801 18.8053 48.9788 18.656C49.2881 18.496 49.5388 18.2827 49.7308 18.016C49.9228 17.7387 50.0614 17.4187 50.1468 17.056C50.2321 16.6827 50.2748 16.2827 50.2748 15.856ZM51.8268 15.856C51.8268 16.4853 51.7414 17.0667 51.5708 17.6C51.4108 18.1333 51.1708 18.592 50.8508 18.976C50.5308 19.36 50.1361 19.6587 49.6668 19.872C49.2081 20.0853 48.6801 20.192 48.0828 20.192C47.6028 20.192 47.1761 20.128 46.8028 20C46.4401 19.872 46.1681 19.7493 45.9868 19.632V22.96H44.4988V11.936C44.8508 11.8507 45.2881 11.76 45.8108 11.664C46.3441 11.5573 46.9574 11.504 47.6508 11.504C48.2908 11.504 48.8668 11.6053 49.3788 11.808C49.8908 12.0107 50.3281 12.2987 50.6908 12.672C51.0534 13.0453 51.3308 13.504 51.5228 14.048C51.7254 14.5813 51.8268 15.184 51.8268 15.856ZM53.9206 20V11.68H55.4086V18.768H58.4806V11.68H59.9686V18.768H63.0406V11.68H64.5286V20H53.9206ZM66.6285 15.856C66.6285 15.12 66.7352 14.48 66.9485 13.936C67.1618 13.3813 67.4445 12.9227 67.7965 12.56C68.1485 12.1973 68.5538 11.9253 69.0125 11.744C69.4712 11.5627 69.9405 11.472 70.4205 11.472C71.5405 11.472 72.3992 11.824 72.9965 12.528C73.5938 13.2213 73.8925 14.2827 73.8925 15.712C73.8925 15.776 73.8925 15.8613 73.8925 15.968C73.8925 16.064 73.8872 16.1547 73.8765 16.24H68.1805C68.2445 17.104 68.4952 17.76 68.9325 18.208C69.3698 18.656 70.0525 18.88 70.9805 18.88C71.5032 18.88 71.9405 18.8373 72.2925 18.752C72.6552 18.656 72.9272 18.5653 73.1085 18.48L73.3165 19.728C73.1352 19.824 72.8152 19.9253 72.3565 20.032C71.9085 20.1387 71.3965 20.192 70.8205 20.192C70.0952 20.192 69.4658 20.0853 68.9325 19.872C68.4098 19.648 67.9778 19.344 67.6365 18.96C67.2952 18.576 67.0392 18.1227 66.8685 17.6C66.7085 17.0667 66.6285 16.4853 66.6285 15.856ZM72.3405 15.04C72.3512 14.368 72.1805 13.8187 71.8285 13.392C71.4872 12.9547 71.0125 12.736 70.4045 12.736C70.0632 12.736 69.7592 12.8053 69.4925 12.944C69.2365 13.072 69.0178 13.2427 68.8365 13.456C68.6552 13.6693 68.5112 13.9147 68.4045 14.192C68.3085 14.4693 68.2445 14.752 68.2125 15.04H72.3405ZM68.8685 10.144C68.6232 10.144 68.4045 10.0587 68.2125 9.888C68.0312 9.70667 67.9405 9.47733 67.9405 9.2C67.9405 8.92267 68.0312 8.69867 68.2125 8.528C68.4045 8.34667 68.6232 8.256 68.8685 8.256C69.1138 8.256 69.3272 8.34667 69.5085 8.528C69.7005 8.69867 69.7965 8.92267 69.7965 9.2C69.7965 9.47733 69.7005 9.70667 69.5085 9.888C69.3272 10.0587 69.1138 10.144 68.8685 10.144ZM71.9085 10.144C71.6632 10.144 71.4445 10.0587 71.2525 9.888C71.0712 9.70667 70.9805 9.47733 70.9805 9.2C70.9805 8.92267 71.0712 8.69867 71.2525 8.528C71.4445 8.34667 71.6632 8.256 71.9085 8.256C72.1538 8.256 72.3672 8.34667 72.5485 8.528C72.7405 8.69867 72.8365 8.92267 72.8365 9.2C72.8365 9.47733 72.7405 9.70667 72.5485 9.888C72.3672 10.0587 72.1538 10.144 71.9085 10.144ZM82.846 20H81.358V16.32H77.518V20H76.03V11.68H77.518V15.072H81.358V11.68H82.846V20Z" fill="#00C5FF"/>
</svg>
