<svg width="105" height="30" viewBox="0 0 105 30" fill="none" xmlns="http://www.w3.org/2000/svg">
<rect width="105" height="30" rx="10" fill="#CBFFE3"/>
<path d="M16.7575 14.52H17.5895C17.9415 14.52 18.2988 14.4933 18.6615 14.44C19.0242 14.3867 19.3548 14.2907 19.6535 14.152C19.9522 14.0027 20.1975 13.8053 20.3895 13.56C20.5815 13.3147 20.6775 13.0053 20.6775 12.632C20.6775 12.152 20.4695 11.7627 20.0535 11.464C19.6482 11.1547 19.1042 11 18.4215 11C17.8348 11 17.3068 11.0693 16.8375 11.208C16.3682 11.336 16.0215 11.4693 15.7975 11.608L15.3015 10.344C15.4295 10.2587 15.6002 10.1787 15.8135 10.104C16.0375 10.0187 16.2828 9.944 16.5495 9.88C16.8268 9.816 17.1255 9.768 17.4455 9.736C17.7655 9.69333 18.0962 9.672 18.4375 9.672C18.9922 9.672 19.5042 9.73067 19.9735 9.848C20.4428 9.96533 20.8482 10.1467 21.1895 10.392C21.5308 10.6267 21.7975 10.9307 21.9895 11.304C22.1815 11.6667 22.2775 12.0987 22.2775 12.6C22.2775 13.112 22.1122 13.592 21.7815 14.04C21.4615 14.488 20.9868 14.8133 20.3575 15.016C20.6775 15.1013 20.9815 15.224 21.2695 15.384C21.5682 15.5333 21.8242 15.7307 22.0375 15.976C22.2615 16.2107 22.4375 16.488 22.5655 16.808C22.7042 17.128 22.7735 17.5013 22.7735 17.928C22.7735 18.5147 22.6615 19.0213 22.4375 19.448C22.2242 19.864 21.9202 20.2053 21.5255 20.472C21.1415 20.7387 20.6722 20.9307 20.1175 21.048C19.5628 21.176 18.9495 21.24 18.2775 21.24C17.8722 21.24 17.4882 21.208 17.1255 21.144C16.7628 21.0907 16.4375 21.0267 16.1495 20.952C15.8615 20.8667 15.6108 20.776 15.3975 20.68C15.1842 20.584 15.0188 20.504 14.9015 20.44L15.3655 19.16C15.4828 19.224 15.6375 19.2987 15.8295 19.384C16.0322 19.4693 16.2562 19.5493 16.5015 19.624C16.7468 19.6987 17.0188 19.7627 17.3175 19.816C17.6162 19.8693 17.9308 19.896 18.2615 19.896C19.1682 19.896 19.8722 19.7467 20.3735 19.448C20.8855 19.1387 21.1415 18.6213 21.1415 17.896C21.1415 17.4693 21.0508 17.1227 20.8695 16.856C20.6988 16.5787 20.4588 16.36 20.1495 16.2C19.8508 16.04 19.4935 15.9333 19.0775 15.88C18.6722 15.816 18.2295 15.784 17.7495 15.784H16.7575V14.52ZM27.6898 19.928C28.0418 19.928 28.3511 19.9227 28.6178 19.912C28.8951 19.8907 29.1244 19.8587 29.3058 19.816V17.336C29.1991 17.2827 29.0231 17.24 28.7778 17.208C28.5431 17.1653 28.2551 17.144 27.9138 17.144C27.6898 17.144 27.4498 17.16 27.1938 17.192C26.9484 17.224 26.7191 17.2933 26.5058 17.4C26.3031 17.496 26.1324 17.6347 25.9938 17.816C25.8551 17.9867 25.7858 18.216 25.7858 18.504C25.7858 19.0373 25.9564 19.4107 26.2978 19.624C26.6391 19.8267 27.1031 19.928 27.6898 19.928ZM27.5618 12.472C28.1591 12.472 28.6604 12.552 29.0658 12.712C29.4818 12.8613 29.8124 13.08 30.0578 13.368C30.3138 13.6453 30.4951 13.9813 30.6018 14.376C30.7084 14.76 30.7618 15.1867 30.7618 15.656V20.856C30.6338 20.8773 30.4524 20.9093 30.2178 20.952C29.9938 20.984 29.7378 21.016 29.4498 21.048C29.1618 21.08 28.8471 21.1067 28.5058 21.128C28.1751 21.16 27.8444 21.176 27.5138 21.176C27.0444 21.176 26.6124 21.128 26.2178 21.032C25.8231 20.936 25.4818 20.7867 25.1938 20.584C24.9058 20.3707 24.6818 20.0933 24.5218 19.752C24.3618 19.4107 24.2818 19 24.2818 18.52C24.2818 18.0613 24.3724 17.6667 24.5538 17.336C24.7458 17.0053 25.0018 16.7387 25.3218 16.536C25.6418 16.3333 26.0151 16.184 26.4418 16.088C26.8684 15.992 27.3164 15.944 27.7858 15.944C27.9351 15.944 28.0898 15.9547 28.2498 15.976C28.4098 15.9867 28.5591 16.008 28.6978 16.04C28.8471 16.0613 28.9751 16.0827 29.0818 16.104C29.1884 16.1253 29.2631 16.1413 29.3058 16.152V15.736C29.3058 15.4907 29.2791 15.2507 29.2258 15.016C29.1724 14.7707 29.0764 14.5573 28.9378 14.376C28.7991 14.184 28.6071 14.0347 28.3618 13.928C28.1271 13.8107 27.8178 13.752 27.4338 13.752C26.9431 13.752 26.5111 13.7893 26.1378 13.864C25.7751 13.928 25.5031 13.9973 25.3218 14.072L25.1458 12.84C25.3378 12.7547 25.6578 12.6747 26.1058 12.6C26.5538 12.5147 27.0391 12.472 27.5618 12.472ZM34.6891 19.88C34.7531 19.8907 34.8438 19.9013 34.9611 19.912C35.0785 19.9227 35.2118 19.9333 35.3611 19.944C35.5105 19.944 35.6651 19.9493 35.8251 19.96C35.9958 19.96 36.1558 19.96 36.3051 19.96C36.6145 19.96 36.9078 19.9387 37.1851 19.896C37.4731 19.8533 37.7185 19.7787 37.9211 19.672C38.1345 19.5653 38.2998 19.4267 38.4171 19.256C38.5451 19.0747 38.6091 18.8453 38.6091 18.568C38.6091 18.3013 38.5505 18.0827 38.4331 17.912C38.3265 17.7307 38.1771 17.5867 37.9851 17.48C37.7931 17.3733 37.5638 17.2987 37.2971 17.256C37.0411 17.2133 36.7638 17.192 36.4651 17.192H34.6891V19.88ZM36.2731 16.088C36.5611 16.088 36.8225 16.072 37.0571 16.04C37.3025 15.9973 37.5105 15.928 37.6811 15.832C37.8625 15.736 38.0011 15.608 38.0971 15.448C38.2038 15.288 38.2571 15.0853 38.2571 14.84C38.2571 14.584 38.1931 14.3813 38.0651 14.232C37.9371 14.0827 37.7665 13.9707 37.5531 13.896C37.3505 13.8107 37.1158 13.7573 36.8491 13.736C36.5931 13.704 36.3318 13.688 36.0651 13.688C35.8198 13.688 35.5691 13.6933 35.3131 13.704C35.0678 13.7147 34.8598 13.7253 34.6891 13.736V16.088H36.2731ZM36.2411 21.144C35.6118 21.144 35.0305 21.112 34.4971 21.048C33.9638 20.9947 33.5425 20.9307 33.2331 20.856V12.76C33.5425 12.6853 33.9638 12.6213 34.4971 12.568C35.0305 12.504 35.6118 12.472 36.2411 12.472C36.6785 12.472 37.1051 12.5093 37.5211 12.584C37.9371 12.6587 38.3051 12.7867 38.6251 12.968C38.9451 13.1387 39.2011 13.3787 39.3931 13.688C39.5958 13.9867 39.6971 14.36 39.6971 14.808C39.6971 15.2133 39.5958 15.56 39.3931 15.848C39.1905 16.136 38.9185 16.36 38.5771 16.52C39.0358 16.68 39.3985 16.92 39.6651 17.24C39.9425 17.5493 40.0811 17.9867 40.0811 18.552C40.0811 19.0533 39.9798 19.4693 39.7771 19.8C39.5851 20.1307 39.3131 20.3973 38.9611 20.6C38.6198 20.8027 38.2145 20.9413 37.7451 21.016C37.2758 21.1013 36.7745 21.144 36.2411 21.144ZM41.5348 16.856C41.5348 16.12 41.6414 15.48 41.8548 14.936C42.0681 14.3813 42.3508 13.9227 42.7028 13.56C43.0548 13.1973 43.4601 12.9253 43.9188 12.744C44.3774 12.5627 44.8468 12.472 45.3268 12.472C46.4468 12.472 47.3054 12.824 47.9028 13.528C48.5001 14.2213 48.7987 15.2827 48.7987 16.712C48.7987 16.776 48.7987 16.8613 48.7987 16.968C48.7987 17.064 48.7934 17.1547 48.7828 17.24H43.0868C43.1508 18.104 43.4014 18.76 43.8388 19.208C44.2761 19.656 44.9588 19.88 45.8868 19.88C46.4094 19.88 46.8468 19.8373 47.1988 19.752C47.5614 19.656 47.8334 19.5653 48.0148 19.48L48.2228 20.728C48.0414 20.824 47.7214 20.9253 47.2628 21.032C46.8148 21.1387 46.3028 21.192 45.7268 21.192C45.0014 21.192 44.3721 21.0853 43.8388 20.872C43.3161 20.648 42.8841 20.344 42.5428 19.96C42.2014 19.576 41.9454 19.1227 41.7747 18.6C41.6148 18.0667 41.5348 17.4853 41.5348 16.856ZM47.2468 16.04C47.2574 15.368 47.0868 14.8187 46.7348 14.392C46.3934 13.9547 45.9188 13.736 45.3108 13.736C44.9694 13.736 44.6654 13.8053 44.3988 13.944C44.1428 14.072 43.9241 14.2427 43.7428 14.456C43.5614 14.6693 43.4174 14.9147 43.3108 15.192C43.2148 15.4693 43.1508 15.752 43.1188 16.04H47.2468ZM56.7123 16.856C56.7123 15.8853 56.4723 15.1387 55.9923 14.616C55.5123 14.0933 54.8723 13.832 54.0723 13.832C53.6243 13.832 53.2723 13.848 53.0163 13.88C52.7709 13.912 52.5736 13.9493 52.4243 13.992V19.24C52.6056 19.3893 52.8669 19.5333 53.2083 19.672C53.5496 19.8107 53.9229 19.88 54.3283 19.88C54.7549 19.88 55.1176 19.8053 55.4163 19.656C55.7256 19.496 55.9763 19.2827 56.1683 19.016C56.3603 18.7387 56.4989 18.4187 56.5843 18.056C56.6696 17.6827 56.7123 17.2827 56.7123 16.856ZM58.2643 16.856C58.2643 17.4853 58.1789 18.0667 58.0083 18.6C57.8483 19.1333 57.6083 19.592 57.2883 19.976C56.9683 20.36 56.5736 20.6587 56.1043 20.872C55.6456 21.0853 55.1176 21.192 54.5203 21.192C54.0403 21.192 53.6136 21.128 53.2403 21C52.8776 20.872 52.6056 20.7493 52.4243 20.632V23.96H50.9363V12.936C51.2883 12.8507 51.7256 12.76 52.2483 12.664C52.7816 12.5573 53.3949 12.504 54.0883 12.504C54.7283 12.504 55.3043 12.6053 55.8163 12.808C56.3283 13.0107 56.7656 13.2987 57.1283 13.672C57.4909 14.0453 57.7683 14.504 57.9603 15.048C58.1629 15.5813 58.2643 16.184 58.2643 16.856ZM60.3581 21V12.68H61.8461V19.768H64.9181V12.68H66.4061V19.768H69.4781V12.68H70.9661V21H60.3581ZM73.066 16.856C73.066 16.12 73.1727 15.48 73.386 14.936C73.5993 14.3813 73.882 13.9227 74.234 13.56C74.586 13.1973 74.9913 12.9253 75.45 12.744C75.9087 12.5627 76.378 12.472 76.858 12.472C77.978 12.472 78.8367 12.824 79.434 13.528C80.0313 14.2213 80.33 15.2827 80.33 16.712C80.33 16.776 80.33 16.8613 80.33 16.968C80.33 17.064 80.3247 17.1547 80.314 17.24H74.618C74.682 18.104 74.9327 18.76 75.37 19.208C75.8073 19.656 76.49 19.88 77.418 19.88C77.9407 19.88 78.378 19.8373 78.73 19.752C79.0927 19.656 79.3647 19.5653 79.546 19.48L79.754 20.728C79.5727 20.824 79.2527 20.9253 78.794 21.032C78.346 21.1387 77.834 21.192 77.258 21.192C76.5327 21.192 75.9033 21.0853 75.37 20.872C74.8473 20.648 74.4153 20.344 74.074 19.96C73.7327 19.576 73.4767 19.1227 73.306 18.6C73.146 18.0667 73.066 17.4853 73.066 16.856ZM78.778 16.04C78.7887 15.368 78.618 14.8187 78.266 14.392C77.9247 13.9547 77.45 13.736 76.842 13.736C76.5007 13.736 76.1967 13.8053 75.93 13.944C75.674 14.072 75.4553 14.2427 75.274 14.456C75.0927 14.6693 74.9487 14.9147 74.842 15.192C74.746 15.4693 74.682 15.752 74.65 16.04H78.778ZM75.306 11.144C75.0607 11.144 74.842 11.0587 74.65 10.888C74.4687 10.7067 74.378 10.4773 74.378 10.2C74.378 9.92267 74.4687 9.69867 74.65 9.528C74.842 9.34667 75.0607 9.256 75.306 9.256C75.5513 9.256 75.7647 9.34667 75.946 9.528C76.138 9.69867 76.234 9.92267 76.234 10.2C76.234 10.4773 76.138 10.7067 75.946 10.888C75.7647 11.0587 75.5513 11.144 75.306 11.144ZM78.346 11.144C78.1007 11.144 77.882 11.0587 77.69 10.888C77.5087 10.7067 77.418 10.4773 77.418 10.2C77.418 9.92267 77.5087 9.69867 77.69 9.528C77.882 9.34667 78.1007 9.256 78.346 9.256C78.5913 9.256 78.8047 9.34667 78.986 9.528C79.178 9.69867 79.274 9.92267 79.274 10.2C79.274 10.4773 79.178 10.7067 78.986 10.888C78.8047 11.0587 78.5913 11.144 78.346 11.144ZM89.2835 21H87.7955V17.32H83.9555V21H82.4675V12.68H83.9555V16.072H87.7955V12.68H89.2835V21Z" fill="#01DE65"/>
</svg>
