<svg width="165" height="165" viewBox="0 0 165 165" fill="none" xmlns="http://www.w3.org/2000/svg">
<rect width="165" height="165" rx="10" fill="#F6F6F6"/>
<path d="M30.073 38.836C30.073 38.124 30.177 37.496 30.385 36.952C30.601 36.408 30.889 35.956 31.249 35.596C31.617 35.228 32.041 34.952 32.521 34.768C33.009 34.584 33.525 34.492 34.069 34.492C34.605 34.492 35.109 34.584 35.581 34.768C36.061 34.952 36.481 35.228 36.841 35.596C37.201 35.956 37.485 36.408 37.693 36.952C37.909 37.496 38.017 38.124 38.017 38.836C38.017 39.548 37.909 40.176 37.693 40.72C37.485 41.264 37.201 41.72 36.841 42.088C36.481 42.448 36.061 42.72 35.581 42.904C35.109 43.088 34.605 43.18 34.069 43.18C33.525 43.18 33.009 43.088 32.521 42.904C32.041 42.72 31.617 42.448 31.249 42.088C30.889 41.72 30.601 41.264 30.385 40.72C30.177 40.176 30.073 39.548 30.073 38.836ZM31.297 38.836C31.297 39.34 31.361 39.8 31.489 40.216C31.617 40.624 31.797 40.972 32.029 41.26C32.269 41.548 32.557 41.772 32.893 41.932C33.237 42.084 33.621 42.16 34.045 42.16C34.469 42.16 34.849 42.084 35.185 41.932C35.521 41.772 35.805 41.548 36.037 41.26C36.277 40.972 36.461 40.624 36.589 40.216C36.717 39.8 36.781 39.34 36.781 38.836C36.781 38.332 36.717 37.876 36.589 37.468C36.461 37.052 36.277 36.7 36.037 36.412C35.805 36.124 35.521 35.904 35.185 35.752C34.849 35.592 34.469 35.512 34.045 35.512C33.621 35.512 33.237 35.592 32.893 35.752C32.557 35.904 32.269 36.124 32.029 36.412C31.797 36.7 31.617 37.052 31.489 37.468C31.361 37.876 31.297 38.332 31.297 38.836ZM40.6848 37.48C40.9328 37.28 41.2208 37.128 41.5488 37.024C41.8848 36.912 42.2048 36.856 42.5088 36.856C43.4048 36.856 44.0808 37.132 44.5368 37.684C45.0008 38.228 45.2328 38.988 45.2328 39.964C45.2328 40.38 45.1768 40.78 45.0648 41.164C44.9528 41.548 44.7768 41.888 44.5368 42.184C44.3048 42.48 44.0088 42.716 43.6488 42.892C43.2888 43.068 42.8608 43.156 42.3648 43.156C41.7968 43.156 41.3248 43.052 40.9488 42.844C40.5728 42.636 40.2728 42.352 40.0488 41.992C39.8328 41.632 39.6808 41.212 39.5928 40.732C39.5048 40.252 39.4608 39.744 39.4608 39.208C39.4608 38.512 39.5088 37.864 39.6048 37.264C39.7088 36.664 39.8928 36.136 40.1568 35.68C40.4208 35.224 40.7848 34.848 41.2488 34.552C41.7208 34.248 42.3248 34.044 43.0608 33.94C43.2768 33.908 43.4648 33.884 43.6248 33.868C43.7928 33.844 43.9368 33.824 44.0568 33.808C44.1848 33.792 44.3008 33.776 44.4048 33.76C44.5088 33.736 44.6168 33.712 44.7288 33.688L44.8488 34.696C44.7928 34.712 44.7328 34.724 44.6688 34.732C44.6128 34.74 44.5288 34.752 44.4168 34.768C44.3128 34.784 44.1688 34.804 43.9848 34.828C43.8088 34.852 43.5768 34.88 43.2888 34.912C42.4968 35 41.8888 35.24 41.4648 35.632C41.0408 36.024 40.7808 36.64 40.6848 37.48ZM40.6128 39.388C40.6128 39.764 40.6368 40.12 40.6848 40.456C40.7408 40.792 40.8328 41.088 40.9608 41.344C41.0968 41.6 41.2768 41.804 41.5008 41.956C41.7248 42.1 42.0128 42.172 42.3648 42.172C42.6688 42.172 42.9288 42.116 43.1448 42.004C43.3608 41.884 43.5368 41.724 43.6728 41.524C43.8088 41.324 43.9088 41.092 43.9728 40.828C44.0368 40.556 44.0688 40.268 44.0688 39.964C44.0688 39.692 44.0408 39.428 43.9848 39.172C43.9368 38.916 43.8448 38.688 43.7088 38.488C43.5728 38.288 43.3888 38.128 43.1568 38.008C42.9328 37.888 42.6488 37.828 42.3048 37.828C41.9688 37.828 41.6448 37.9 41.3328 38.044C41.0288 38.188 40.7928 38.364 40.6248 38.572C40.6168 38.66 40.6128 38.784 40.6128 38.944C40.6128 39.104 40.6128 39.252 40.6128 39.388ZM47.6535 37.696H46.0455V36.76H48.7695V39.148C48.8335 39.132 48.9175 39.116 49.0215 39.1C49.1335 39.084 49.2495 39.068 49.3695 39.052C49.4975 39.036 49.6295 39.024 49.7655 39.016C49.9015 39.008 50.0295 39.004 50.1495 39.004C50.4935 39.004 50.8175 39.044 51.1215 39.124C51.4255 39.196 51.6895 39.316 51.9135 39.484C52.1455 39.644 52.3295 39.856 52.4655 40.12C52.6015 40.376 52.6695 40.684 52.6695 41.044C52.6695 41.42 52.6055 41.74 52.4775 42.004C52.3495 42.268 52.1655 42.484 51.9255 42.652C51.6855 42.82 51.3975 42.94 51.0615 43.012C50.7335 43.092 50.3655 43.132 49.9575 43.132C49.5575 43.132 49.1655 43.108 48.7815 43.06C48.3975 43.02 48.0215 42.956 47.6535 42.868V37.696ZM50.0175 42.22C50.4895 42.22 50.8615 42.128 51.1335 41.944C51.4055 41.76 51.5415 41.464 51.5415 41.056C51.5415 40.856 51.5015 40.684 51.4215 40.54C51.3415 40.396 51.2295 40.28 51.0855 40.192C50.9495 40.096 50.7895 40.028 50.6055 39.988C50.4215 39.94 50.2255 39.916 50.0175 39.916C49.8015 39.916 49.5775 39.924 49.3455 39.94C49.1215 39.948 48.9295 39.972 48.7695 40.012V42.16C48.8175 42.168 48.8895 42.176 48.9855 42.184C49.0815 42.192 49.1855 42.2 49.2975 42.208C49.4175 42.208 49.5375 42.212 49.6575 42.22C49.7855 42.22 49.9055 42.22 50.0175 42.22ZM53.6374 39.892C53.6374 39.34 53.7174 38.86 53.8774 38.452C54.0374 38.036 54.2494 37.692 54.5134 37.42C54.7774 37.148 55.0814 36.944 55.4254 36.808C55.7694 36.672 56.1214 36.604 56.4814 36.604C57.3214 36.604 57.9654 36.868 58.4134 37.396C58.8614 37.916 59.0854 38.712 59.0854 39.784C59.0854 39.832 59.0854 39.896 59.0854 39.976C59.0854 40.048 59.0814 40.116 59.0734 40.18H54.8014C54.8494 40.828 55.0374 41.32 55.3654 41.656C55.6934 41.992 56.2054 42.16 56.9014 42.16C57.2934 42.16 57.6214 42.128 57.8854 42.064C58.1574 41.992 58.3614 41.924 58.4974 41.86L58.6534 42.796C58.5174 42.868 58.2774 42.944 57.9334 43.024C57.5974 43.104 57.2134 43.144 56.7814 43.144C56.2374 43.144 55.7654 43.064 55.3654 42.904C54.9734 42.736 54.6494 42.508 54.3934 42.22C54.1374 41.932 53.9454 41.592 53.8174 41.2C53.6974 40.8 53.6374 40.364 53.6374 39.892ZM57.9214 39.28C57.9294 38.776 57.8014 38.364 57.5374 38.044C57.2814 37.716 56.9254 37.552 56.4694 37.552C56.2134 37.552 55.9854 37.604 55.7854 37.708C55.5934 37.804 55.4294 37.932 55.2934 38.092C55.1574 38.252 55.0494 38.436 54.9694 38.644C54.8974 38.852 54.8494 39.064 54.8254 39.28H57.9214ZM55.3174 35.608C55.1334 35.608 54.9694 35.544 54.8254 35.416C54.6894 35.28 54.6214 35.108 54.6214 34.9C54.6214 34.692 54.6894 34.524 54.8254 34.396C54.9694 34.26 55.1334 34.192 55.3174 34.192C55.5014 34.192 55.6614 34.26 55.7974 34.396C55.9414 34.524 56.0134 34.692 56.0134 34.9C56.0134 35.108 55.9414 35.28 55.7974 35.416C55.6614 35.544 55.5014 35.608 55.3174 35.608ZM57.5974 35.608C57.4134 35.608 57.2494 35.544 57.1054 35.416C56.9694 35.28 56.9014 35.108 56.9014 34.9C56.9014 34.692 56.9694 34.524 57.1054 34.396C57.2494 34.26 57.4134 34.192 57.5974 34.192C57.7814 34.192 57.9414 34.26 58.0774 34.396C58.2214 34.524 58.2934 34.692 58.2934 34.9C58.2934 35.108 58.2214 35.28 58.0774 35.416C57.9414 35.544 57.7814 35.608 57.5974 35.608ZM61.8765 38.404C61.7965 39.196 61.7365 39.988 61.6965 40.78C61.6565 41.564 61.6245 42.304 61.6005 43H60.5325C60.5485 42.512 60.5725 42.004 60.6045 41.476C60.6365 40.94 60.6725 40.404 60.7125 39.868C60.7525 39.324 60.7965 38.792 60.8445 38.272C60.8925 37.744 60.9445 37.24 61.0005 36.76H62.0205C62.2765 37.176 62.5765 37.748 62.9205 38.476C63.2645 39.196 63.6605 40.028 64.1085 40.972C64.5565 40.028 64.9525 39.196 65.2965 38.476C65.6405 37.748 65.9405 37.176 66.1965 36.76H67.2285C67.2845 37.24 67.3365 37.744 67.3845 38.272C67.4325 38.792 67.4765 39.324 67.5165 39.868C67.5565 40.404 67.5925 40.94 67.6245 41.476C67.6565 42.004 67.6805 42.512 67.6965 43H66.5925C66.5685 42.304 66.5365 41.564 66.4965 40.78C66.4565 39.988 66.3965 39.196 66.3165 38.404C66.1885 38.652 66.0405 38.952 65.8725 39.304C65.7045 39.648 65.5365 40 65.3685 40.36C65.2085 40.72 65.0565 41.064 64.9125 41.392C64.7685 41.72 64.6565 41.98 64.5765 42.172H63.6405C63.5525 41.972 63.4325 41.708 63.2805 41.38C63.1365 41.052 62.9805 40.708 62.8125 40.348C62.6525 39.98 62.4885 39.624 62.3205 39.28C62.1525 38.928 62.0045 38.636 61.8765 38.404ZM77.3552 43H76.2392V40.24H73.3592V43H72.2432V36.76H73.3592V39.304H76.2392V36.76H77.3552V43ZM78.9265 39.892C78.9265 39.34 79.0065 38.86 79.1665 38.452C79.3265 38.036 79.5385 37.692 79.8025 37.42C80.0665 37.148 80.3705 36.944 80.7145 36.808C81.0585 36.672 81.4105 36.604 81.7705 36.604C82.6105 36.604 83.2545 36.868 83.7025 37.396C84.1505 37.916 84.3745 38.712 84.3745 39.784C84.3745 39.832 84.3745 39.896 84.3745 39.976C84.3745 40.048 84.3705 40.116 84.3625 40.18H80.0905C80.1385 40.828 80.3265 41.32 80.6545 41.656C80.9825 41.992 81.4945 42.16 82.1905 42.16C82.5825 42.16 82.9105 42.128 83.1745 42.064C83.4465 41.992 83.6505 41.924 83.7865 41.86L83.9425 42.796C83.8065 42.868 83.5665 42.944 83.2225 43.024C82.8865 43.104 82.5025 43.144 82.0705 43.144C81.5265 43.144 81.0545 43.064 80.6545 42.904C80.2625 42.736 79.9385 42.508 79.6825 42.22C79.4265 41.932 79.2345 41.592 79.1065 41.2C78.9865 40.8 78.9265 40.364 78.9265 39.892ZM83.2105 39.28C83.2185 38.776 83.0905 38.364 82.8265 38.044C82.5705 37.716 82.2145 37.552 81.7585 37.552C81.5025 37.552 81.2745 37.604 81.0745 37.708C80.8825 37.804 80.7185 37.932 80.5825 38.092C80.4465 38.252 80.3385 38.436 80.2585 38.644C80.1865 38.852 80.1385 39.064 80.1145 39.28H83.2105ZM87.9869 42.088H88.6589C88.9229 41.704 89.1309 41.308 89.2829 40.9C89.4429 40.492 89.5629 40.072 89.6429 39.64C89.7229 39.2 89.7749 38.744 89.7989 38.272C89.8229 37.792 89.8389 37.288 89.8469 36.76H93.9389V42.088H94.7789V44.74H93.7229V43H89.0429V44.74H87.9869V42.088ZM92.8229 42.088V37.696H90.8669C90.8589 38.072 90.8389 38.452 90.8069 38.836C90.7749 39.212 90.7229 39.588 90.6509 39.964C90.5789 40.332 90.4749 40.696 90.3389 41.056C90.2109 41.408 90.0469 41.752 89.8469 42.088H92.8229ZM101.493 39.88C101.493 40.376 101.421 40.824 101.277 41.224C101.133 41.624 100.929 41.968 100.665 42.256C100.409 42.544 100.101 42.768 99.7414 42.928C99.3814 43.08 98.9894 43.156 98.5654 43.156C98.1414 43.156 97.7494 43.08 97.3894 42.928C97.0294 42.768 96.7174 42.544 96.4534 42.256C96.1974 41.968 95.9974 41.624 95.8534 41.224C95.7094 40.824 95.6374 40.376 95.6374 39.88C95.6374 39.392 95.7094 38.948 95.8534 38.548C95.9974 38.14 96.1974 37.792 96.4534 37.504C96.7174 37.216 97.0294 36.996 97.3894 36.844C97.7494 36.684 98.1414 36.604 98.5654 36.604C98.9894 36.604 99.3814 36.684 99.7414 36.844C100.101 36.996 100.409 37.216 100.665 37.504C100.929 37.792 101.133 38.14 101.277 38.548C101.421 38.948 101.493 39.392 101.493 39.88ZM100.329 39.88C100.329 39.176 100.169 38.62 99.8494 38.212C99.5374 37.796 99.1094 37.588 98.5654 37.588C98.0214 37.588 97.5894 37.796 97.2694 38.212C96.9574 38.62 96.8014 39.176 96.8014 39.88C96.8014 40.584 96.9574 41.144 97.2694 41.56C97.5894 41.968 98.0214 42.172 98.5654 42.172C99.1094 42.172 99.5374 41.968 99.8494 41.56C100.169 41.144 100.329 40.584 100.329 39.88ZM105.236 37.696C105.236 37.96 105.228 38.244 105.212 38.548C105.204 38.844 105.184 39.144 105.152 39.448C105.12 39.744 105.076 40.04 105.02 40.336C104.964 40.624 104.892 40.896 104.804 41.152C104.716 41.408 104.604 41.648 104.468 41.872C104.34 42.096 104.18 42.296 103.988 42.472C103.796 42.64 103.572 42.784 103.316 42.904C103.06 43.016 102.76 43.088 102.416 43.12L102.26 42.184C102.652 42.104 102.96 41.956 103.184 41.74C103.416 41.524 103.6 41.26 103.736 40.948C103.856 40.676 103.944 40.368 104 40.024C104.056 39.68 104.096 39.324 104.12 38.956C104.144 38.58 104.156 38.204 104.156 37.828C104.164 37.452 104.168 37.096 104.168 36.76H108.32V43H107.204V37.696H105.236ZM117.927 36.76C117.767 36.96 117.587 37.18 117.387 37.42C117.187 37.652 116.979 37.896 116.763 38.152C116.547 38.4 116.327 38.648 116.103 38.896C115.887 39.144 115.679 39.38 115.479 39.604C115.719 39.836 115.967 40.088 116.223 40.36C116.479 40.632 116.727 40.916 116.967 41.212C117.215 41.5 117.451 41.8 117.675 42.112C117.899 42.416 118.095 42.712 118.263 43H117.015C116.847 42.736 116.651 42.46 116.427 42.172C116.211 41.876 115.983 41.592 115.743 41.32C115.511 41.048 115.275 40.796 115.035 40.564C114.803 40.324 114.587 40.128 114.387 39.976V43H113.319V39.976C113.119 40.128 112.899 40.324 112.659 40.564C112.427 40.796 112.191 41.048 111.951 41.32C111.719 41.592 111.491 41.876 111.267 42.172C111.051 42.46 110.859 42.736 110.691 43H109.455C109.623 42.712 109.815 42.416 110.031 42.112C110.255 41.808 110.487 41.512 110.727 41.224C110.975 40.928 111.227 40.644 111.483 40.372C111.739 40.1 111.987 39.848 112.227 39.616C112.027 39.392 111.815 39.156 111.591 38.908C111.375 38.66 111.159 38.412 110.943 38.164C110.727 37.908 110.519 37.664 110.319 37.432C110.119 37.192 109.935 36.968 109.767 36.76H111.003C111.291 37.12 111.623 37.52 111.999 37.96C112.375 38.4 112.815 38.908 113.319 39.484V36.76H114.387V39.484C114.891 38.908 115.331 38.4 115.707 37.96C116.083 37.52 116.415 37.12 116.703 36.76H117.927ZM118.723 39.892C118.723 39.34 118.803 38.86 118.963 38.452C119.123 38.036 119.335 37.692 119.599 37.42C119.863 37.148 120.167 36.944 120.511 36.808C120.855 36.672 121.207 36.604 121.567 36.604C122.407 36.604 123.051 36.868 123.499 37.396C123.947 37.916 124.171 38.712 124.171 39.784C124.171 39.832 124.171 39.896 124.171 39.976C124.171 40.048 124.167 40.116 124.159 40.18H119.887C119.935 40.828 120.123 41.32 120.451 41.656C120.779 41.992 121.291 42.16 121.987 42.16C122.379 42.16 122.707 42.128 122.971 42.064C123.243 41.992 123.447 41.924 123.583 41.86L123.739 42.796C123.603 42.868 123.363 42.944 123.019 43.024C122.683 43.104 122.299 43.144 121.867 43.144C121.323 43.144 120.851 43.064 120.451 42.904C120.059 42.736 119.735 42.508 119.479 42.22C119.223 41.932 119.031 41.592 118.903 41.2C118.783 40.8 118.723 40.364 118.723 39.892ZM123.007 39.28C123.015 38.776 122.887 38.364 122.623 38.044C122.367 37.716 122.011 37.552 121.555 37.552C121.299 37.552 121.071 37.604 120.871 37.708C120.679 37.804 120.515 37.932 120.379 38.092C120.243 38.252 120.135 38.436 120.055 38.644C119.983 38.852 119.935 39.064 119.911 39.28H123.007ZM130.886 43H129.77V40.24H126.89V43H125.774V36.76H126.89V39.304H129.77V36.76H130.886V43ZM40.6615 127H39.5455V121.696H36.7615V127H35.6455V120.76H40.6615V127ZM46.915 123.892C46.915 123.164 46.735 122.604 46.375 122.212C46.015 121.82 45.535 121.624 44.935 121.624C44.599 121.624 44.335 121.636 44.143 121.66C43.959 121.684 43.811 121.712 43.699 121.744V125.68C43.835 125.792 44.031 125.9 44.287 126.004C44.543 126.108 44.823 126.16 45.127 126.16C45.447 126.16 45.719 126.104 45.943 125.992C46.175 125.872 46.363 125.712 46.507 125.512C46.651 125.304 46.755 125.064 46.819 124.792C46.883 124.512 46.915 124.212 46.915 123.892ZM48.079 123.892C48.079 124.364 48.015 124.8 47.887 125.2C47.767 125.6 47.587 125.944 47.347 126.232C47.107 126.52 46.811 126.744 46.459 126.904C46.115 127.064 45.719 127.144 45.271 127.144C44.911 127.144 44.591 127.096 44.311 127C44.039 126.904 43.835 126.812 43.699 126.724V129.22H42.583V120.952C42.847 120.888 43.175 120.82 43.567 120.748C43.967 120.668 44.427 120.628 44.947 120.628C45.427 120.628 45.859 120.704 46.243 120.856C46.627 121.008 46.955 121.224 47.227 121.504C47.499 121.784 47.707 122.128 47.851 122.536C48.003 122.936 48.079 123.388 48.079 123.892ZM49.3015 123.892C49.3015 123.34 49.3815 122.86 49.5415 122.452C49.7015 122.036 49.9135 121.692 50.1775 121.42C50.4415 121.148 50.7455 120.944 51.0895 120.808C51.4335 120.672 51.7855 120.604 52.1455 120.604C52.9855 120.604 53.6295 120.868 54.0775 121.396C54.5255 121.916 54.7495 122.712 54.7495 123.784C54.7495 123.832 54.7495 123.896 54.7495 123.976C54.7495 124.048 54.7455 124.116 54.7375 124.18H50.4655C50.5135 124.828 50.7015 125.32 51.0295 125.656C51.3575 125.992 51.8695 126.16 52.5655 126.16C52.9575 126.16 53.2855 126.128 53.5495 126.064C53.8215 125.992 54.0255 125.924 54.1615 125.86L54.3175 126.796C54.1815 126.868 53.9415 126.944 53.5975 127.024C53.2615 127.104 52.8775 127.144 52.4455 127.144C51.9015 127.144 51.4295 127.064 51.0295 126.904C50.6375 126.736 50.3135 126.508 50.0575 126.22C49.8015 125.932 49.6095 125.592 49.4815 125.2C49.3615 124.8 49.3015 124.364 49.3015 123.892ZM53.5855 123.28C53.5935 122.776 53.4655 122.364 53.2015 122.044C52.9455 121.716 52.5895 121.552 52.1335 121.552C51.8775 121.552 51.6495 121.604 51.4495 121.708C51.2575 121.804 51.0935 121.932 50.9575 122.092C50.8215 122.252 50.7135 122.436 50.6335 122.644C50.5615 122.852 50.5135 123.064 50.4895 123.28H53.5855ZM57.4446 126.16C57.4926 126.168 57.5606 126.176 57.6486 126.184C57.7366 126.192 57.8366 126.2 57.9486 126.208C58.0606 126.208 58.1766 126.212 58.2966 126.22C58.4246 126.22 58.5446 126.22 58.6566 126.22C58.8886 126.22 59.1086 126.204 59.3166 126.172C59.5326 126.14 59.7166 126.084 59.8686 126.004C60.0286 125.924 60.1526 125.82 60.2406 125.692C60.3366 125.556 60.3846 125.384 60.3846 125.176C60.3846 124.976 60.3406 124.812 60.2526 124.684C60.1726 124.548 60.0606 124.44 59.9166 124.36C59.7726 124.28 59.6006 124.224 59.4006 124.192C59.2086 124.16 59.0006 124.144 58.7766 124.144H57.4446V126.16ZM58.6326 123.316C58.8486 123.316 59.0446 123.304 59.2206 123.28C59.4046 123.248 59.5606 123.196 59.6886 123.124C59.8246 123.052 59.9286 122.956 60.0006 122.836C60.0806 122.716 60.1206 122.564 60.1206 122.38C60.1206 122.188 60.0726 122.036 59.9766 121.924C59.8806 121.812 59.7526 121.728 59.5926 121.672C59.4406 121.608 59.2646 121.568 59.0646 121.552C58.8726 121.528 58.6766 121.516 58.4766 121.516C58.2926 121.516 58.1046 121.52 57.9126 121.528C57.7286 121.536 57.5726 121.544 57.4446 121.552V123.316H58.6326ZM58.6086 127.108C58.1366 127.108 57.7006 127.084 57.3006 127.036C56.9006 126.996 56.5846 126.948 56.3526 126.892V120.82C56.5846 120.764 56.9006 120.716 57.3006 120.676C57.7006 120.628 58.1366 120.604 58.6086 120.604C58.9366 120.604 59.2566 120.632 59.5686 120.688C59.8806 120.744 60.1566 120.84 60.3966 120.976C60.6366 121.104 60.8286 121.284 60.9726 121.516C61.1246 121.74 61.2006 122.02 61.2006 122.356C61.2006 122.66 61.1246 122.92 60.9726 123.136C60.8206 123.352 60.6166 123.52 60.3606 123.64C60.7046 123.76 60.9766 123.94 61.1766 124.18C61.3846 124.412 61.4886 124.74 61.4886 125.164C61.4886 125.54 61.4126 125.852 61.2606 126.1C61.1166 126.348 60.9126 126.548 60.6486 126.7C60.3926 126.852 60.0886 126.956 59.7366 127.012C59.3846 127.076 59.0086 127.108 58.6086 127.108ZM65.2188 123.916C65.0028 123.916 64.7908 123.924 64.5828 123.94C64.3828 123.948 64.2028 123.972 64.0428 124.012V126.16C64.0908 126.168 64.1588 126.176 64.2468 126.184C64.3428 126.192 64.4428 126.2 64.5468 126.208C64.6588 126.208 64.7708 126.212 64.8828 126.22C64.9948 126.22 65.0948 126.22 65.1828 126.22C65.6708 126.22 66.0468 126.128 66.3108 125.944C66.5748 125.76 66.7068 125.464 66.7068 125.056C66.7068 124.856 66.6628 124.684 66.5748 124.54C66.4948 124.396 66.3828 124.28 66.2388 124.192C66.1028 124.096 65.9468 124.028 65.7708 123.988C65.5948 123.94 65.4108 123.916 65.2188 123.916ZM62.9268 120.76H64.0428V123.148C64.1788 123.116 64.3748 123.084 64.6308 123.052C64.8948 123.02 65.1468 123.004 65.3868 123.004C65.7148 123.004 66.0268 123.044 66.3228 123.124C66.6188 123.196 66.8788 123.316 67.1028 123.484C67.3268 123.644 67.5028 123.856 67.6308 124.12C67.7668 124.376 67.8348 124.684 67.8348 125.044C67.8348 125.42 67.7708 125.74 67.6428 126.004C67.5148 126.268 67.3348 126.484 67.1028 126.652C66.8708 126.82 66.5908 126.94 66.2628 127.012C65.9348 127.092 65.5748 127.132 65.1828 127.132C64.8068 127.132 64.4268 127.108 64.0428 127.06C63.6588 127.02 63.2868 126.956 62.9268 126.868V120.76ZM70.1028 127H68.9868V120.76H70.1028V127ZM72.0205 127V120.76H73.1365V126.076H75.4405V120.76H76.5565V126.076H78.8605V120.76H79.9765V127H72.0205ZM84.0115 126.196C84.2755 126.196 84.5075 126.192 84.7075 126.184C84.9155 126.168 85.0875 126.144 85.2235 126.112V124.252C85.1435 124.212 85.0115 124.18 84.8275 124.156C84.6515 124.124 84.4355 124.108 84.1795 124.108C84.0115 124.108 83.8315 124.12 83.6395 124.144C83.4555 124.168 83.2835 124.22 83.1235 124.3C82.9715 124.372 82.8435 124.476 82.7395 124.612C82.6355 124.74 82.5835 124.912 82.5835 125.128C82.5835 125.528 82.7115 125.808 82.9675 125.968C83.2235 126.12 83.5715 126.196 84.0115 126.196ZM83.9155 120.604C84.3635 120.604 84.7395 120.664 85.0435 120.784C85.3555 120.896 85.6035 121.06 85.7875 121.276C85.9795 121.484 86.1155 121.736 86.1955 122.032C86.2755 122.32 86.3155 122.64 86.3155 122.992V126.892C86.2195 126.908 86.0835 126.932 85.9075 126.964C85.7395 126.988 85.5475 127.012 85.3315 127.036C85.1155 127.06 84.8795 127.08 84.6235 127.096C84.3755 127.12 84.1275 127.132 83.8795 127.132C83.5275 127.132 83.2035 127.096 82.9075 127.024C82.6115 126.952 82.3555 126.84 82.1395 126.688C81.9235 126.528 81.7555 126.32 81.6355 126.064C81.5155 125.808 81.4555 125.5 81.4555 125.14C81.4555 124.796 81.5235 124.5 81.6595 124.252C81.8035 124.004 81.9955 123.804 82.2355 123.652C82.4755 123.5 82.7555 123.388 83.0755 123.316C83.3955 123.244 83.7315 123.208 84.0835 123.208C84.1955 123.208 84.3115 123.216 84.4315 123.232C84.5515 123.24 84.6635 123.256 84.7675 123.28C84.8795 123.296 84.9755 123.312 85.0555 123.328C85.1355 123.344 85.1915 123.356 85.2235 123.364V123.052C85.2235 122.868 85.2035 122.688 85.1635 122.512C85.1235 122.328 85.0515 122.168 84.9475 122.032C84.8435 121.888 84.6995 121.776 84.5155 121.696C84.3395 121.608 84.1075 121.564 83.8195 121.564C83.4515 121.564 83.1275 121.592 82.8475 121.648C82.5755 121.696 82.3715 121.748 82.2355 121.804L82.1035 120.88C82.2475 120.816 82.4875 120.756 82.8235 120.7C83.1595 120.636 83.5235 120.604 83.9155 120.604ZM92.573 120.76V121.696H90.545V127H89.429V121.696H87.401V120.76H92.573ZM96.0877 126.22C96.5597 126.22 96.9317 126.128 97.2037 125.944C97.4757 125.76 97.6117 125.464 97.6117 125.056C97.6117 124.856 97.5717 124.684 97.4917 124.54C97.4117 124.396 97.2997 124.28 97.1557 124.192C97.0197 124.096 96.8597 124.028 96.6757 123.988C96.4917 123.94 96.2957 123.916 96.0877 123.916C95.8717 123.916 95.6477 123.924 95.4157 123.94C95.1917 123.948 94.9997 123.972 94.8397 124.012V126.16C94.8877 126.168 94.9597 126.176 95.0557 126.184C95.1517 126.192 95.2557 126.2 95.3677 126.208C95.4877 126.208 95.6077 126.212 95.7277 126.22C95.8557 126.22 95.9757 126.22 96.0877 126.22ZM93.7237 126.868V120.76H94.8397V123.148C94.9037 123.132 94.9877 123.116 95.0917 123.1C95.2037 123.084 95.3197 123.068 95.4397 123.052C95.5677 123.036 95.6997 123.024 95.8357 123.016C95.9717 123.008 96.0997 123.004 96.2197 123.004C96.5637 123.004 96.8877 123.044 97.1917 123.124C97.4957 123.196 97.7597 123.316 97.9837 123.484C98.2157 123.644 98.3997 123.856 98.5357 124.12C98.6717 124.376 98.7397 124.684 98.7397 125.044C98.7397 125.42 98.6757 125.74 98.5477 126.004C98.4197 126.268 98.2357 126.484 97.9957 126.652C97.7557 126.82 97.4677 126.94 97.1317 127.012C96.8037 127.092 96.4357 127.132 96.0277 127.132C95.6277 127.132 95.2357 127.108 94.8517 127.06C94.4677 127.02 94.0917 126.956 93.7237 126.868ZM102.997 120.4C103.453 120.224 103.897 120 104.329 119.728C104.761 119.448 105.157 119.1 105.517 118.684H106.309V127H105.193V120.232C105.097 120.32 104.977 120.412 104.833 120.508C104.697 120.604 104.545 120.696 104.377 120.784C104.217 120.872 104.045 120.956 103.861 121.036C103.685 121.116 103.513 121.184 103.345 121.24L102.997 120.4ZM116.196 125.848C116.116 125.656 116.008 125.412 115.872 125.116C115.744 124.82 115.604 124.5 115.452 124.156C115.3 123.812 115.136 123.46 114.96 123.1C114.792 122.732 114.632 122.388 114.48 122.068C114.328 121.74 114.184 121.448 114.048 121.192C113.92 120.936 113.816 120.74 113.736 120.604C113.648 121.548 113.576 122.572 113.52 123.676C113.464 124.772 113.416 125.88 113.376 127H112.236C112.268 126.28 112.304 125.556 112.344 124.828C112.384 124.092 112.428 123.372 112.476 122.668C112.532 121.956 112.588 121.264 112.644 120.592C112.708 119.92 112.776 119.284 112.848 118.684H113.868C114.084 119.036 114.316 119.452 114.564 119.932C114.812 120.412 115.06 120.916 115.308 121.444C115.556 121.964 115.796 122.488 116.028 123.016C116.26 123.536 116.472 124.012 116.664 124.444C116.856 124.012 117.068 123.536 117.3 123.016C117.532 122.488 117.772 121.964 118.02 121.444C118.268 120.916 118.516 120.412 118.764 119.932C119.012 119.452 119.244 119.036 119.46 118.684H120.48C120.752 121.364 120.956 124.136 121.092 127H119.952C119.912 125.88 119.864 124.772 119.808 123.676C119.752 122.572 119.68 121.548 119.592 120.604C119.512 120.74 119.404 120.936 119.268 121.192C119.14 121.448 119 121.74 118.848 122.068C118.696 122.388 118.532 122.732 118.356 123.1C118.188 123.46 118.028 123.812 117.876 124.156C117.724 124.5 117.58 124.82 117.444 125.116C117.316 125.412 117.212 125.656 117.132 125.848H116.196ZM124.081 119.68V121.792H125.113C125.697 121.792 126.217 121.84 126.673 121.936C127.137 122.032 127.529 122.188 127.849 122.404C128.169 122.612 128.413 122.884 128.581 123.22C128.749 123.548 128.833 123.952 128.833 124.432C128.833 125.312 128.513 125.976 127.873 126.424C127.233 126.864 126.329 127.084 125.161 127.084C124.993 127.084 124.809 127.08 124.609 127.072C124.417 127.064 124.221 127.052 124.021 127.036C123.829 127.02 123.637 127 123.445 126.976C123.253 126.952 123.077 126.92 122.917 126.88V118.684H128.053V119.68H124.081ZM125.257 126.064C125.569 126.064 125.865 126.04 126.145 125.992C126.433 125.944 126.685 125.86 126.901 125.74C127.117 125.612 127.289 125.444 127.417 125.236C127.545 125.028 127.609 124.764 127.609 124.444C127.609 124.108 127.549 123.832 127.429 123.616C127.317 123.4 127.153 123.228 126.937 123.1C126.721 122.972 126.453 122.884 126.133 122.836C125.821 122.78 125.465 122.752 125.065 122.752H124.081V126.028C124.169 126.036 124.273 126.044 124.393 126.052C124.497 126.06 124.621 126.064 124.765 126.064C124.909 126.064 125.073 126.064 125.257 126.064Z" fill="#FF0000"/>
<path d="M74.4999 68C71.7499 68 69.4999 70.25 69.4999 73C69.4999 75.75 71.7499 78 74.4999 78C77.2499 78 79.4999 75.75 79.4999 73" stroke="#FF0000" stroke-opacity="0.7" stroke-width="3" stroke-linecap="round" stroke-linejoin="round"/>
<path d="M57 85.475V90.5C57 103 62 108 74.5 108H89.5C102 108 107 103 107 90.5V78" stroke="#FF0000" stroke-opacity="0.7" stroke-width="3" stroke-linecap="round" stroke-linejoin="round"/>
<path d="M84.5 58H74.5C62 58 57 63 57 75.5" stroke="#FF0000" stroke-opacity="0.7" stroke-width="3" stroke-linecap="round" stroke-linejoin="round"/>
<path d="M91.375 65.5H105.125" stroke="#FF0000" stroke-opacity="0.7" stroke-width="3" stroke-linecap="round"/>
<path d="M98.2501 72.375V58.625" stroke="#FF0000" stroke-opacity="0.7" stroke-width="3" stroke-linecap="round"/>
<path d="M58.6748 100.375L70.9998 92.1001C72.9748 90.7751 75.8248 90.9251 77.5998 92.4501L78.4248 93.1751C80.3748 94.8501 83.5248 94.8501 85.4748 93.1751L95.8748 84.2501C97.8248 82.5751 100.975 82.5751 102.925 84.2501L107 87.7501" stroke="#FF0000" stroke-opacity="0.7" stroke-width="3" stroke-linecap="round" stroke-linejoin="round"/>
</svg>
