<svg width="105" height="30" viewBox="0 0 105 30" fill="none" xmlns="http://www.w3.org/2000/svg">
<rect width="105" height="30" rx="10" fill="#CBFFE3"/>
<path d="M14.842 20.096C14.618 20.096 14.3726 20.0907 14.106 20.08C13.85 20.0693 13.5886 20.0533 13.322 20.032C13.066 20.0107 12.81 19.984 12.554 19.952C12.298 19.92 12.0633 19.8773 11.85 19.824V9.072C12.0633 9.01867 12.298 8.976 12.554 8.944C12.81 8.912 13.066 8.88533 13.322 8.864C13.5886 8.84267 13.85 8.82667 14.106 8.816C14.362 8.80533 14.602 8.8 14.826 8.8C15.466 8.8 16.0633 8.848 16.618 8.944C17.1833 9.04 17.6686 9.20533 18.074 9.44C18.49 9.664 18.8153 9.96267 19.05 10.336C19.2846 10.7093 19.402 11.168 19.402 11.712C19.402 12.32 19.258 12.8213 18.97 13.216C18.682 13.6 18.298 13.888 17.818 14.08C18.4686 14.272 18.986 14.576 19.37 14.992C19.754 15.408 19.946 15.9947 19.946 16.752C19.946 17.8613 19.5353 18.6987 18.714 19.264C17.9033 19.8187 16.6126 20.096 14.842 20.096ZM13.386 14.832V18.736C13.5033 18.7467 13.642 18.7573 13.802 18.768C13.9406 18.7787 14.1006 18.7893 14.282 18.8C14.474 18.8 14.6926 18.8 14.938 18.8C15.3966 18.8 15.8286 18.7733 16.234 18.72C16.65 18.656 17.0126 18.5493 17.322 18.4C17.6313 18.2507 17.8766 18.0427 18.058 17.776C18.25 17.5093 18.346 17.1733 18.346 16.768C18.346 16.4053 18.2766 16.1013 18.138 15.856C17.9993 15.6 17.7966 15.3973 17.53 15.248C17.274 15.0987 16.9646 14.992 16.602 14.928C16.2393 14.864 15.834 14.832 15.386 14.832H13.386ZM13.386 13.584H15.018C15.402 13.584 15.7646 13.5573 16.106 13.504C16.4473 13.4507 16.7406 13.3547 16.986 13.216C17.242 13.0773 17.4393 12.896 17.578 12.672C17.7273 12.448 17.802 12.1653 17.802 11.824C17.802 11.504 17.7273 11.2373 17.578 11.024C17.4286 10.8 17.2206 10.624 16.954 10.496C16.698 10.3573 16.394 10.256 16.042 10.192C15.69 10.128 15.3166 10.096 14.922 10.096C14.5273 10.096 14.218 10.1013 13.994 10.112C13.77 10.1227 13.5673 10.1387 13.386 10.16V13.584ZM32.4263 20H30.9383V12.928H27.2263V20H25.7383V11.68H32.4263V20ZM40.7643 15.856C40.7643 14.8853 40.5243 14.1387 40.0443 13.616C39.5643 13.0933 38.9243 12.832 38.1243 12.832C37.6763 12.832 37.3243 12.848 37.0683 12.88C36.823 12.912 36.6257 12.9493 36.4763 12.992V18.24C36.6577 18.3893 36.919 18.5333 37.2603 18.672C37.6017 18.8107 37.975 18.88 38.3803 18.88C38.807 18.88 39.1697 18.8053 39.4683 18.656C39.7777 18.496 40.0283 18.2827 40.2203 18.016C40.4123 17.7387 40.551 17.4187 40.6363 17.056C40.7217 16.6827 40.7643 16.2827 40.7643 15.856ZM42.3163 15.856C42.3163 16.4853 42.231 17.0667 42.0603 17.6C41.9003 18.1333 41.6603 18.592 41.3403 18.976C41.0203 19.36 40.6257 19.6587 40.1563 19.872C39.6977 20.0853 39.1697 20.192 38.5723 20.192C38.0923 20.192 37.6657 20.128 37.2923 20C36.9297 19.872 36.6577 19.7493 36.4763 19.632V22.96H34.9883V11.936C35.3403 11.8507 35.7777 11.76 36.3003 11.664C36.8337 11.5573 37.447 11.504 38.1403 11.504C38.7803 11.504 39.3563 11.6053 39.8683 11.808C40.3803 12.0107 40.8177 12.2987 41.1803 12.672C41.543 13.0453 41.8203 13.504 42.0123 14.048C42.215 14.5813 42.3163 15.184 42.3163 15.856ZM51.7542 15.84C51.7542 16.5013 51.6582 17.0987 51.4662 17.632C51.2742 18.1653 51.0022 18.624 50.6502 19.008C50.3089 19.392 49.8982 19.6907 49.4182 19.904C48.9382 20.1067 48.4155 20.208 47.8502 20.208C47.2849 20.208 46.7622 20.1067 46.2822 19.904C45.8022 19.6907 45.3862 19.392 45.0342 19.008C44.6929 18.624 44.4262 18.1653 44.2342 17.632C44.0422 17.0987 43.9462 16.5013 43.9462 15.84C43.9462 15.1893 44.0422 14.5973 44.2342 14.064C44.4262 13.52 44.6929 13.056 45.0342 12.672C45.3862 12.288 45.8022 11.9947 46.2822 11.792C46.7622 11.5787 47.2849 11.472 47.8502 11.472C48.4155 11.472 48.9382 11.5787 49.4182 11.792C49.8982 11.9947 50.3089 12.288 50.6502 12.672C51.0022 13.056 51.2742 13.52 51.4662 14.064C51.6582 14.5973 51.7542 15.1893 51.7542 15.84ZM50.2022 15.84C50.2022 14.9013 49.9889 14.16 49.5622 13.616C49.1462 13.0613 48.5755 12.784 47.8502 12.784C47.1249 12.784 46.5489 13.0613 46.1222 13.616C45.7062 14.16 45.4982 14.9013 45.4982 15.84C45.4982 16.7787 45.7062 17.5253 46.1222 18.08C46.5489 18.624 47.1249 18.896 47.8502 18.896C48.5755 18.896 49.1462 18.624 49.5622 18.08C49.9889 17.5253 50.2022 16.7787 50.2022 15.84ZM60.4877 18.768H61.6077V22.32H60.1997V20H53.8477V11.68H55.3357V18.768H58.9997V11.68H60.4877V18.768ZM62.7587 15.856C62.7587 15.12 62.8654 14.48 63.0787 13.936C63.292 13.3813 63.5747 12.9227 63.9267 12.56C64.2787 12.1973 64.684 11.9253 65.1427 11.744C65.6014 11.5627 66.0707 11.472 66.5507 11.472C67.6707 11.472 68.5294 11.824 69.1267 12.528C69.724 13.2213 70.0227 14.2827 70.0227 15.712C70.0227 15.776 70.0227 15.8613 70.0227 15.968C70.0227 16.064 70.0174 16.1547 70.0067 16.24H64.3107C64.3747 17.104 64.6254 17.76 65.0627 18.208C65.5 18.656 66.1827 18.88 67.1107 18.88C67.6334 18.88 68.0707 18.8373 68.4227 18.752C68.7854 18.656 69.0574 18.5653 69.2387 18.48L69.4467 19.728C69.2654 19.824 68.9454 19.9253 68.4867 20.032C68.0387 20.1387 67.5267 20.192 66.9507 20.192C66.2254 20.192 65.596 20.0853 65.0627 19.872C64.54 19.648 64.108 19.344 63.7667 18.96C63.4254 18.576 63.1694 18.1227 62.9987 17.6C62.8387 17.0667 62.7587 16.4853 62.7587 15.856ZM68.4707 15.04C68.4814 14.368 68.3107 13.8187 67.9587 13.392C67.6174 12.9547 67.1427 12.736 66.5347 12.736C66.1934 12.736 65.8894 12.8053 65.6227 12.944C65.3667 13.072 65.148 13.2427 64.9667 13.456C64.7854 13.6693 64.6414 13.9147 64.5347 14.192C64.4387 14.4693 64.3747 14.752 64.3427 15.04H68.4707ZM75.7762 20.192C75.1042 20.192 74.5122 20.0853 74.0002 19.872C73.4989 19.6587 73.0722 19.36 72.7202 18.976C72.3789 18.592 72.1229 18.1387 71.9522 17.616C71.7815 17.0827 71.6962 16.496 71.6962 15.856C71.6962 15.216 71.7869 14.6293 71.9682 14.096C72.1602 13.5627 72.4269 13.104 72.7682 12.72C73.1095 12.3253 73.5255 12.0213 74.0162 11.808C74.5175 11.584 75.0722 11.472 75.6802 11.472C76.0535 11.472 76.4269 11.504 76.8002 11.568C77.1735 11.632 77.5309 11.7333 77.8722 11.872L77.5362 13.136C77.3122 13.0293 77.0509 12.944 76.7522 12.88C76.4642 12.816 76.1549 12.784 75.8242 12.784C74.9922 12.784 74.3522 13.0453 73.9042 13.568C73.4669 14.0907 73.2482 14.8533 73.2482 15.856C73.2482 16.304 73.2962 16.7147 73.3922 17.088C73.4989 17.4613 73.6589 17.7813 73.8722 18.048C74.0962 18.3147 74.3789 18.5227 74.7202 18.672C75.0615 18.8107 75.4775 18.88 75.9682 18.88C76.3629 18.88 76.7202 18.8427 77.0402 18.768C77.3602 18.6933 77.6109 18.6133 77.7922 18.528L78.0002 19.776C77.9149 19.8293 77.7922 19.8827 77.6322 19.936C77.4722 19.9787 77.2909 20.016 77.0882 20.048C76.8855 20.0907 76.6669 20.1227 76.4322 20.144C76.2082 20.176 75.9895 20.192 75.7762 20.192ZM83.2137 20.192C82.5417 20.192 81.9497 20.0853 81.4377 19.872C80.9364 19.6587 80.5097 19.36 80.1577 18.976C79.8164 18.592 79.5604 18.1387 79.3897 17.616C79.219 17.0827 79.1337 16.496 79.1337 15.856C79.1337 15.216 79.2244 14.6293 79.4057 14.096C79.5977 13.5627 79.8644 13.104 80.2057 12.72C80.547 12.3253 80.963 12.0213 81.4537 11.808C81.955 11.584 82.5097 11.472 83.1177 11.472C83.491 11.472 83.8644 11.504 84.2377 11.568C84.611 11.632 84.9684 11.7333 85.3097 11.872L84.9737 13.136C84.7497 13.0293 84.4884 12.944 84.1897 12.88C83.9017 12.816 83.5924 12.784 83.2617 12.784C82.4297 12.784 81.7897 13.0453 81.3417 13.568C80.9044 14.0907 80.6857 14.8533 80.6857 15.856C80.6857 16.304 80.7337 16.7147 80.8297 17.088C80.9364 17.4613 81.0964 17.7813 81.3097 18.048C81.5337 18.3147 81.8164 18.5227 82.1577 18.672C82.499 18.8107 82.915 18.88 83.4057 18.88C83.8004 18.88 84.1577 18.8427 84.4777 18.768C84.7977 18.6933 85.0484 18.6133 85.2297 18.528L85.4377 19.776C85.3524 19.8293 85.2297 19.8827 85.0697 19.936C84.9097 19.9787 84.7284 20.016 84.5257 20.048C84.323 20.0907 84.1044 20.1227 83.8697 20.144C83.6457 20.176 83.427 20.192 83.2137 20.192ZM86.5712 15.856C86.5712 15.12 86.6779 14.48 86.8912 13.936C87.1045 13.3813 87.3872 12.9227 87.7392 12.56C88.0912 12.1973 88.4965 11.9253 88.9552 11.744C89.4139 11.5627 89.8832 11.472 90.3632 11.472C91.4832 11.472 92.3419 11.824 92.9392 12.528C93.5365 13.2213 93.8352 14.2827 93.8352 15.712C93.8352 15.776 93.8352 15.8613 93.8352 15.968C93.8352 16.064 93.8299 16.1547 93.8192 16.24H88.1232C88.1872 17.104 88.4379 17.76 88.8752 18.208C89.3125 18.656 89.9952 18.88 90.9232 18.88C91.4459 18.88 91.8832 18.8373 92.2352 18.752C92.5979 18.656 92.8699 18.5653 93.0512 18.48L93.2592 19.728C93.0779 19.824 92.7579 19.9253 92.2992 20.032C91.8512 20.1387 91.3392 20.192 90.7632 20.192C90.0379 20.192 89.4085 20.0853 88.8752 19.872C88.3525 19.648 87.9205 19.344 87.5792 18.96C87.2379 18.576 86.9819 18.1227 86.8112 17.6C86.6512 17.0667 86.5712 16.4853 86.5712 15.856ZM92.2832 15.04C92.2939 14.368 92.1232 13.8187 91.7712 13.392C91.4299 12.9547 90.9552 12.736 90.3472 12.736C90.0059 12.736 89.7019 12.8053 89.4352 12.944C89.1792 13.072 88.9605 13.2427 88.7792 13.456C88.5979 13.6693 88.4539 13.9147 88.3472 14.192C88.2512 14.4693 88.1872 14.752 88.1552 15.04H92.2832Z" fill="#01DE65"/>
</svg>
