<svg width="105" height="30" viewBox="0 0 105 30" fill="none" xmlns="http://www.w3.org/2000/svg">
<rect width="105" height="30" rx="10" fill="#C8F0FC"/>
<path d="M14.368 20.096C14.144 20.096 13.8987 20.0907 13.632 20.08C13.376 20.0693 13.1147 20.0533 12.848 20.032C12.592 20.0107 12.336 19.984 12.08 19.952C11.824 19.92 11.5893 19.8773 11.376 19.824V9.072C11.5893 9.01867 11.824 8.976 12.08 8.944C12.336 8.912 12.592 8.88533 12.848 8.864C13.1147 8.84267 13.376 8.82667 13.632 8.816C13.888 8.80533 14.128 8.8 14.352 8.8C14.992 8.8 15.5893 8.848 16.144 8.944C16.7093 9.04 17.1947 9.20533 17.6 9.44C18.016 9.664 18.3413 9.96267 18.576 10.336C18.8107 10.7093 18.928 11.168 18.928 11.712C18.928 12.32 18.784 12.8213 18.496 13.216C18.208 13.6 17.824 13.888 17.344 14.08C17.9947 14.272 18.512 14.576 18.896 14.992C19.28 15.408 19.472 15.9947 19.472 16.752C19.472 17.8613 19.0613 18.6987 18.24 19.264C17.4293 19.8187 16.1387 20.096 14.368 20.096ZM12.912 14.832V18.736C13.0293 18.7467 13.168 18.7573 13.328 18.768C13.4667 18.7787 13.6267 18.7893 13.808 18.8C14 18.8 14.2187 18.8 14.464 18.8C14.9227 18.8 15.3547 18.7733 15.76 18.72C16.176 18.656 16.5387 18.5493 16.848 18.4C17.1573 18.2507 17.4027 18.0427 17.584 17.776C17.776 17.5093 17.872 17.1733 17.872 16.768C17.872 16.4053 17.8027 16.1013 17.664 15.856C17.5253 15.6 17.3227 15.3973 17.056 15.248C16.8 15.0987 16.4907 14.992 16.128 14.928C15.7653 14.864 15.36 14.832 14.912 14.832H12.912ZM12.912 13.584H14.544C14.928 13.584 15.2907 13.5573 15.632 13.504C15.9733 13.4507 16.2667 13.3547 16.512 13.216C16.768 13.0773 16.9653 12.896 17.104 12.672C17.2533 12.448 17.328 12.1653 17.328 11.824C17.328 11.504 17.2533 11.2373 17.104 11.024C16.9547 10.8 16.7467 10.624 16.48 10.496C16.224 10.3573 15.92 10.256 15.568 10.192C15.216 10.128 14.8427 10.096 14.448 10.096C14.0533 10.096 13.744 10.1013 13.52 10.112C13.296 10.1227 13.0933 10.1387 12.912 10.16V13.584ZM31.9524 20H30.4644V12.928H26.7524V20H25.2644V11.68H31.9524V20ZM40.2904 15.856C40.2904 14.8853 40.0504 14.1387 39.5704 13.616C39.0904 13.0933 38.4504 12.832 37.6504 12.832C37.2024 12.832 36.8504 12.848 36.5944 12.88C36.349 12.912 36.1517 12.9493 36.0024 12.992V18.24C36.1837 18.3893 36.445 18.5333 36.7864 18.672C37.1277 18.8107 37.501 18.88 37.9064 18.88C38.333 18.88 38.6957 18.8053 38.9944 18.656C39.3037 18.496 39.5544 18.2827 39.7464 18.016C39.9384 17.7387 40.077 17.4187 40.1624 17.056C40.2477 16.6827 40.2904 16.2827 40.2904 15.856ZM41.8424 15.856C41.8424 16.4853 41.757 17.0667 41.5864 17.6C41.4264 18.1333 41.1864 18.592 40.8664 18.976C40.5464 19.36 40.1517 19.6587 39.6824 19.872C39.2237 20.0853 38.6957 20.192 38.0984 20.192C37.6184 20.192 37.1917 20.128 36.8184 20C36.4557 19.872 36.1837 19.7493 36.0024 19.632V22.96H34.5144V11.936C34.8664 11.8507 35.3037 11.76 35.8264 11.664C36.3597 11.5573 36.973 11.504 37.6664 11.504C38.3064 11.504 38.8824 11.6053 39.3944 11.808C39.9064 12.0107 40.3437 12.2987 40.7064 12.672C41.069 13.0453 41.3464 13.504 41.5384 14.048C41.741 14.5813 41.8424 15.184 41.8424 15.856ZM51.2803 15.84C51.2803 16.5013 51.1843 17.0987 50.9923 17.632C50.8003 18.1653 50.5283 18.624 50.1763 19.008C49.8349 19.392 49.4243 19.6907 48.9443 19.904C48.4643 20.1067 47.9416 20.208 47.3763 20.208C46.8109 20.208 46.2883 20.1067 45.8083 19.904C45.3283 19.6907 44.9123 19.392 44.5603 19.008C44.2189 18.624 43.9523 18.1653 43.7603 17.632C43.5683 17.0987 43.4723 16.5013 43.4723 15.84C43.4723 15.1893 43.5683 14.5973 43.7603 14.064C43.9523 13.52 44.2189 13.056 44.5603 12.672C44.9123 12.288 45.3283 11.9947 45.8083 11.792C46.2883 11.5787 46.8109 11.472 47.3763 11.472C47.9416 11.472 48.4643 11.5787 48.9443 11.792C49.4243 11.9947 49.8349 12.288 50.1763 12.672C50.5283 13.056 50.8003 13.52 50.9923 14.064C51.1843 14.5973 51.2803 15.1893 51.2803 15.84ZM49.7283 15.84C49.7283 14.9013 49.5149 14.16 49.0883 13.616C48.6723 13.0613 48.1016 12.784 47.3763 12.784C46.6509 12.784 46.0749 13.0613 45.6483 13.616C45.2323 14.16 45.0243 14.9013 45.0243 15.84C45.0243 16.7787 45.2323 17.5253 45.6483 18.08C46.0749 18.624 46.6509 18.896 47.3763 18.896C48.1016 18.896 48.6723 18.624 49.0883 18.08C49.5149 17.5253 49.7283 16.7787 49.7283 15.84ZM60.0138 18.768H61.1337V22.32H59.7258V20H53.3738V11.68H54.8618V18.768H58.5258V11.68H60.0138V18.768ZM62.2848 15.856C62.2848 15.12 62.3914 14.48 62.6048 13.936C62.8181 13.3813 63.1008 12.9227 63.4528 12.56C63.8048 12.1973 64.2101 11.9253 64.6688 11.744C65.1274 11.5627 65.5968 11.472 66.0768 11.472C67.1968 11.472 68.0554 11.824 68.6528 12.528C69.2501 13.2213 69.5487 14.2827 69.5487 15.712C69.5487 15.776 69.5487 15.8613 69.5487 15.968C69.5487 16.064 69.5434 16.1547 69.5328 16.24H63.8368C63.9008 17.104 64.1514 17.76 64.5888 18.208C65.0261 18.656 65.7088 18.88 66.6368 18.88C67.1594 18.88 67.5968 18.8373 67.9488 18.752C68.3114 18.656 68.5834 18.5653 68.7648 18.48L68.9728 19.728C68.7914 19.824 68.4714 19.9253 68.0128 20.032C67.5648 20.1387 67.0528 20.192 66.4768 20.192C65.7514 20.192 65.1221 20.0853 64.5888 19.872C64.0661 19.648 63.6341 19.344 63.2928 18.96C62.9514 18.576 62.6954 18.1227 62.5247 17.6C62.3648 17.0667 62.2848 16.4853 62.2848 15.856ZM67.9968 15.04C68.0074 14.368 67.8368 13.8187 67.4848 13.392C67.1434 12.9547 66.6688 12.736 66.0608 12.736C65.7194 12.736 65.4154 12.8053 65.1488 12.944C64.8928 13.072 64.6741 13.2427 64.4928 13.456C64.3114 13.6693 64.1674 13.9147 64.0608 14.192C63.9648 14.4693 63.9008 14.752 63.8688 15.04H67.9968ZM75.3023 20.192C74.6303 20.192 74.0383 20.0853 73.5263 19.872C73.0249 19.6587 72.5983 19.36 72.2463 18.976C71.9049 18.592 71.6489 18.1387 71.4783 17.616C71.3076 17.0827 71.2223 16.496 71.2223 15.856C71.2223 15.216 71.3129 14.6293 71.4943 14.096C71.6863 13.5627 71.9529 13.104 72.2943 12.72C72.6356 12.3253 73.0516 12.0213 73.5423 11.808C74.0436 11.584 74.5983 11.472 75.2063 11.472C75.5796 11.472 75.9529 11.504 76.3263 11.568C76.6996 11.632 77.0569 11.7333 77.3983 11.872L77.0623 13.136C76.8383 13.0293 76.5769 12.944 76.2783 12.88C75.9903 12.816 75.6809 12.784 75.3503 12.784C74.5183 12.784 73.8783 13.0453 73.4303 13.568C72.9929 14.0907 72.7743 14.8533 72.7743 15.856C72.7743 16.304 72.8223 16.7147 72.9183 17.088C73.0249 17.4613 73.1849 17.7813 73.3983 18.048C73.6223 18.3147 73.9049 18.5227 74.2463 18.672C74.5876 18.8107 75.0036 18.88 75.4943 18.88C75.8889 18.88 76.2463 18.8427 76.5663 18.768C76.8863 18.6933 77.1369 18.6133 77.3183 18.528L77.5263 19.776C77.4409 19.8293 77.3183 19.8827 77.1583 19.936C76.9983 19.9787 76.8169 20.016 76.6143 20.048C76.4116 20.0907 76.1929 20.1227 75.9583 20.144C75.7343 20.176 75.5156 20.192 75.3023 20.192ZM82.7398 20.192C82.0678 20.192 81.4758 20.0853 80.9638 19.872C80.4624 19.6587 80.0358 19.36 79.6838 18.976C79.3424 18.592 79.0864 18.1387 78.9158 17.616C78.7451 17.0827 78.6598 16.496 78.6598 15.856C78.6598 15.216 78.7504 14.6293 78.9318 14.096C79.1238 13.5627 79.3904 13.104 79.7318 12.72C80.0731 12.3253 80.4891 12.0213 80.9798 11.808C81.4811 11.584 82.0358 11.472 82.6438 11.472C83.0171 11.472 83.3904 11.504 83.7638 11.568C84.1371 11.632 84.4944 11.7333 84.8358 11.872L84.4998 13.136C84.2758 13.0293 84.0144 12.944 83.7158 12.88C83.4278 12.816 83.1184 12.784 82.7878 12.784C81.9558 12.784 81.3158 13.0453 80.8678 13.568C80.4304 14.0907 80.2118 14.8533 80.2118 15.856C80.2118 16.304 80.2598 16.7147 80.3558 17.088C80.4624 17.4613 80.6224 17.7813 80.8358 18.048C81.0598 18.3147 81.3424 18.5227 81.6838 18.672C82.0251 18.8107 82.4411 18.88 82.9318 18.88C83.3264 18.88 83.6838 18.8427 84.0038 18.768C84.3238 18.6933 84.5744 18.6133 84.7558 18.528L84.9638 19.776C84.8784 19.8293 84.7558 19.8827 84.5958 19.936C84.4358 19.9787 84.2544 20.016 84.0518 20.048C83.8491 20.0907 83.6304 20.1227 83.3958 20.144C83.1718 20.176 82.9531 20.192 82.7398 20.192ZM86.0973 15.856C86.0973 15.12 86.2039 14.48 86.4173 13.936C86.6306 13.3813 86.9133 12.9227 87.2653 12.56C87.6173 12.1973 88.0226 11.9253 88.4813 11.744C88.9399 11.5627 89.4093 11.472 89.8893 11.472C91.0093 11.472 91.8679 11.824 92.4653 12.528C93.0626 13.2213 93.3612 14.2827 93.3612 15.712C93.3612 15.776 93.3612 15.8613 93.3612 15.968C93.3612 16.064 93.3559 16.1547 93.3453 16.24H87.6493C87.7133 17.104 87.9639 17.76 88.4013 18.208C88.8386 18.656 89.5213 18.88 90.4493 18.88C90.9719 18.88 91.4093 18.8373 91.7613 18.752C92.1239 18.656 92.3959 18.5653 92.5773 18.48L92.7853 19.728C92.6039 19.824 92.2839 19.9253 91.8253 20.032C91.3773 20.1387 90.8653 20.192 90.2893 20.192C89.5639 20.192 88.9346 20.0853 88.4013 19.872C87.8786 19.648 87.4466 19.344 87.1053 18.96C86.7639 18.576 86.5079 18.1227 86.3372 17.6C86.1773 17.0667 86.0973 16.4853 86.0973 15.856ZM91.8093 15.04C91.8199 14.368 91.6493 13.8187 91.2973 13.392C90.9559 12.9547 90.4813 12.736 89.8733 12.736C89.5319 12.736 89.2279 12.8053 88.9613 12.944C88.7053 13.072 88.4866 13.2427 88.3053 13.456C88.1239 13.6693 87.9799 13.9147 87.8733 14.192C87.7773 14.4693 87.7133 14.752 87.6813 15.04H91.8093Z" fill="#00C5FF"/>
</svg>
