<svg width="166" height="23" viewBox="0 0 166 23" fill="none" xmlns="http://www.w3.org/2000/svg">
<path d="M0.6 0.599998V23H19.608V18.52H5.08V0.599998H0.6ZM40.858 23V18.52H26.33V14.072H39.738V9.592H26.33V5.08H40.858V0.599998H21.85V23H40.858ZM54.573 18.52H52.333L47.885 14.072V0.599998H43.405V16.312L50.093 23H56.813L63.501 16.312V0.599998H59.053V14.072L54.573 18.52ZM85.3893 23V18.52H70.8613V14.072H84.2693V9.592H70.8613V5.08H85.3893V0.599998H66.3813V23H85.3893ZM88.2563 0.599998V23H107.264V18.52H92.7363V0.599998H88.2563ZM122.319 0.599998V20.792L124.527 23H140.207L142.415 20.792V0.599998H137.967V18.52H126.799V0.599998H122.319ZM150.08 11.832V5.08H161.248V11.832H150.08ZM150.08 23V16.312H163.488L165.696 14.072V2.872L163.488 0.599998H145.6V23H150.08Z" fill="white"/>
</svg>
