<svg width="105" height="30" viewBox="0 0 105 30" fill="none" xmlns="http://www.w3.org/2000/svg">
<rect width="105" height="30" rx="10" fill="#FEFFCB"/>
<path d="M34.352 8.912H35.904V20H34.352V14.88H28.928V20H27.376V8.912H28.928V13.536H34.352V8.912ZM45.9053 15.84C45.9053 16.5013 45.8093 17.0987 45.6173 17.632C45.4253 18.1653 45.1533 18.624 44.8013 19.008C44.4599 19.392 44.0493 19.6907 43.5693 19.904C43.0893 20.1067 42.5666 20.208 42.0013 20.208C41.4359 20.208 40.9133 20.1067 40.4333 19.904C39.9533 19.6907 39.5373 19.392 39.1853 19.008C38.8439 18.624 38.5773 18.1653 38.3853 17.632C38.1933 17.0987 38.0973 16.5013 38.0973 15.84C38.0973 15.1893 38.1933 14.5973 38.3853 14.064C38.5773 13.52 38.8439 13.056 39.1853 12.672C39.5373 12.288 39.9533 11.9947 40.4333 11.792C40.9133 11.5787 41.4359 11.472 42.0013 11.472C42.5666 11.472 43.0893 11.5787 43.5693 11.792C44.0493 11.9947 44.4599 12.288 44.8013 12.672C45.1533 13.056 45.4253 13.52 45.6173 14.064C45.8093 14.5973 45.9053 15.1893 45.9053 15.84ZM44.3533 15.84C44.3533 14.9013 44.1399 14.16 43.7133 13.616C43.2973 13.0613 42.7266 12.784 42.0013 12.784C41.2759 12.784 40.6999 13.0613 40.2733 13.616C39.8573 14.16 39.6493 14.9013 39.6493 15.84C39.6493 16.7787 39.8573 17.5253 40.2733 18.08C40.6999 18.624 41.2759 18.896 42.0013 18.896C42.7266 18.896 43.2973 18.624 43.7133 18.08C44.1399 17.5253 44.3533 16.7787 44.3533 15.84ZM49.4548 18.88C49.5188 18.8907 49.6094 18.9013 49.7268 18.912C49.8441 18.9227 49.9774 18.9333 50.1268 18.944C50.2761 18.944 50.4308 18.9493 50.5908 18.96C50.7614 18.96 50.9214 18.96 51.0708 18.96C51.3801 18.96 51.6734 18.9387 51.9508 18.896C52.2388 18.8533 52.4841 18.7787 52.6868 18.672C52.9001 18.5653 53.0654 18.4267 53.1828 18.256C53.3108 18.0747 53.3748 17.8453 53.3748 17.568C53.3748 17.3013 53.3161 17.0827 53.1988 16.912C53.0921 16.7307 52.9428 16.5867 52.7508 16.48C52.5588 16.3733 52.3294 16.2987 52.0628 16.256C51.8068 16.2133 51.5294 16.192 51.2308 16.192H49.4548V18.88ZM51.0388 15.088C51.3268 15.088 51.5881 15.072 51.8228 15.04C52.0681 14.9973 52.2761 14.928 52.4468 14.832C52.6281 14.736 52.7668 14.608 52.8628 14.448C52.9694 14.288 53.0228 14.0853 53.0228 13.84C53.0228 13.584 52.9588 13.3813 52.8308 13.232C52.7028 13.0827 52.5321 12.9707 52.3188 12.896C52.1161 12.8107 51.8814 12.7573 51.6148 12.736C51.3588 12.704 51.0974 12.688 50.8307 12.688C50.5854 12.688 50.3348 12.6933 50.0788 12.704C49.8334 12.7147 49.6254 12.7253 49.4548 12.736V15.088H51.0388ZM51.0068 20.144C50.3774 20.144 49.7961 20.112 49.2628 20.048C48.7294 19.9947 48.3081 19.9307 47.9988 19.856V11.76C48.3081 11.6853 48.7294 11.6213 49.2628 11.568C49.7961 11.504 50.3774 11.472 51.0068 11.472C51.4441 11.472 51.8708 11.5093 52.2868 11.584C52.7028 11.6587 53.0708 11.7867 53.3908 11.968C53.7108 12.1387 53.9668 12.3787 54.1588 12.688C54.3614 12.9867 54.4628 13.36 54.4628 13.808C54.4628 14.2133 54.3614 14.56 54.1588 14.848C53.9561 15.136 53.6841 15.36 53.3428 15.52C53.8014 15.68 54.1641 15.92 54.4308 16.24C54.7081 16.5493 54.8468 16.9867 54.8468 17.552C54.8468 18.0533 54.7454 18.4693 54.5428 18.8C54.3508 19.1307 54.0788 19.3973 53.7268 19.6C53.3854 19.8027 52.9801 19.9413 52.5108 20.016C52.0414 20.1013 51.5401 20.144 51.0068 20.144ZM59.8204 15.888C59.5324 15.888 59.2497 15.8987 58.9724 15.92C58.7057 15.9307 58.4657 15.9627 58.2524 16.016V18.88C58.3164 18.8907 58.407 18.9013 58.5244 18.912C58.6524 18.9227 58.7857 18.9333 58.9244 18.944C59.0737 18.944 59.223 18.9493 59.3724 18.96C59.5217 18.96 59.655 18.96 59.7724 18.96C60.423 18.96 60.9244 18.8373 61.2764 18.592C61.6284 18.3467 61.8044 17.952 61.8044 17.408C61.8044 17.1413 61.7457 16.912 61.6284 16.72C61.5217 16.528 61.3724 16.3733 61.1804 16.256C60.999 16.128 60.791 16.0373 60.5564 15.984C60.3217 15.92 60.0764 15.888 59.8204 15.888ZM56.7644 11.68H58.2524V14.864C58.4337 14.8213 58.695 14.7787 59.0364 14.736C59.3884 14.6933 59.7244 14.672 60.0444 14.672C60.4817 14.672 60.8977 14.7253 61.2924 14.832C61.687 14.928 62.0337 15.088 62.3324 15.312C62.631 15.5253 62.8657 15.808 63.0364 16.16C63.2177 16.5013 63.3084 16.912 63.3084 17.392C63.3084 17.8933 63.223 18.32 63.0524 18.672C62.8817 19.024 62.6417 19.312 62.3324 19.536C62.023 19.76 61.6497 19.92 61.2124 20.016C60.775 20.1227 60.295 20.176 59.7724 20.176C59.271 20.176 58.7644 20.144 58.2524 20.08C57.7404 20.0267 57.2444 19.9413 56.7644 19.824V11.68ZM66.3324 20H64.8444V11.68H66.3324V20ZM75.8814 11.68V20H74.4414V13.664C74.1214 14.0693 73.7694 14.544 73.3854 15.088C73.0014 15.632 72.6174 16.1973 72.2334 16.784C71.8494 17.36 71.4814 17.9307 71.1294 18.496C70.7774 19.0613 70.4734 19.5627 70.2174 20H68.8894V11.68H70.3294V17.664C70.6067 17.2053 70.9214 16.704 71.2734 16.16C71.6254 15.6053 71.988 15.0613 72.3614 14.528C72.7454 13.984 73.124 13.4667 73.4974 12.976C73.8814 12.4747 74.2387 12.0427 74.5694 11.68H75.8814ZM72.3934 10.336C71.7214 10.336 71.172 10.1653 70.7454 9.824C70.3294 9.48267 70.0787 9.008 69.9934 8.4L71.1294 8.096C71.2147 8.43733 71.3587 8.71467 71.5614 8.928C71.764 9.14133 72.0414 9.248 72.3934 9.248C72.7454 9.248 73.0227 9.14133 73.2254 8.928C73.428 8.71467 73.572 8.43733 73.6574 8.096L74.7774 8.4C74.692 9.008 74.4414 9.48267 74.0254 9.824C73.6094 10.1653 73.0654 10.336 72.3934 10.336Z" fill="#FFC700"/>
</svg>
