<svg width="54" height="54" viewBox="0 0 54 54" fill="none" xmlns="http://www.w3.org/2000/svg">
<path d="M19.5 12C16.75 12 14.5 14.25 14.5 17C14.5 19.75 16.75 22 19.5 22C22.25 22 24.5 19.75 24.5 17" stroke="#BBBBBB" stroke-width="3" stroke-linecap="round" stroke-linejoin="round"/>
<path d="M2 29.475V34.5C2 47 7 52 19.5 52H34.5C47 52 52 47 52 34.5V22" stroke="#BBBBBB" stroke-width="3" stroke-linecap="round" stroke-linejoin="round"/>
<path d="M29.5 2H19.5C7 2 2 7 2 19.5" stroke="#BBBBBB" stroke-width="3" stroke-linecap="round" stroke-linejoin="round"/>
<path d="M36.375 9.5H50.125" stroke="#BBBBBB" stroke-width="3" stroke-linecap="round"/>
<path d="M43.25 16.375V2.625" stroke="#BBBBBB" stroke-width="3" stroke-linecap="round"/>
<path d="M3.6748 44.3751L15.9998 36.1001C17.9748 34.7751 20.8248 34.9251 22.5998 36.4501L23.4248 37.1751C25.3748 38.8501 28.5248 38.8501 30.4748 37.1751L40.8748 28.2501C42.8248 26.5751 45.9748 26.5751 47.9248 28.2501L51.9998 31.7501" stroke="#BBBBBB" stroke-width="3" stroke-linecap="round" stroke-linejoin="round"/>
</svg>
